<svg xmlns="http://www.w3.org/2000/svg" xmlns:xlink="http://www.w3.org/1999/xlink" width="500" zoomAndPan="magnify" viewBox="0 0 375 374.999991" height="500" preserveAspectRatio="xMidYMid meet" version="1.0"><defs><g/><clipPath id="45a9ca1161"><path d="M 159 170 L 250 170 L 250 212 L 159 212 Z M 159 170 " clip-rule="nonzero"/></clipPath><clipPath id="68a18a17c2"><path d="M 177.464844 233.5625 L 156.886719 174.15625 L 231.019531 148.476562 L 251.597656 207.882812 Z M 177.464844 233.5625 " clip-rule="nonzero"/></clipPath><clipPath id="245476eaa3"><path d="M 166.4375 201.730469 L 159.546875 181.832031 C 158.746094 179.527344 159.101562 176.976562 160.5 174.976562 C 161.894531 172.976562 164.167969 171.765625 166.605469 171.722656 L 227.929688 170.636719 C 234.191406 170.527344 239.8125 174.453125 241.863281 180.371094 L 248.757812 200.273438 C 249.554688 202.578125 249.203125 205.125 247.804688 207.128906 C 246.40625 209.128906 244.136719 210.335938 241.695312 210.378906 L 180.375 211.46875 C 174.113281 211.578125 168.488281 207.648438 166.4375 201.730469 Z M 166.4375 201.730469 " clip-rule="nonzero"/></clipPath></defs><g clip-path="url(#45a9ca1161)"><g clip-path="url(#68a18a17c2)"><g clip-path="url(#245476eaa3)"><path fill="#000000" d="M 178.242188 235.808594 L 156.109375 171.910156 L 229.992188 146.316406 L 252.125 210.21875 Z M 178.242188 235.808594 " fill-opacity="1" fill-rule="nonzero"/></g></g></g><g fill="#000000" fill-opacity="1"><g transform="translate(101.075249, 202.774697)"><g><path d="M 21.640625 -19.859375 L 13.046875 2.0625 C 11.578125 5.65625 9.019531 7.453125 5.375 7.453125 C 3.269531 7.453125 1.34375 6.773438 -0.40625 5.421875 L 2.25 1.0625 C 3.132812 1.78125 4.003906 2.140625 4.859375 2.140625 C 5.992188 2.140625 6.816406 1.609375 7.328125 0.546875 L 7.8125 -0.4375 L -0.4375 -19.859375 L 6.125 -19.859375 L 10.984375 -6.671875 L 15.296875 -19.859375 Z M 21.640625 -19.859375 "/></g></g></g><g fill="#000000" fill-opacity="1"><g transform="translate(120.353911, 202.774697)"><g><path d="M 11.46875 -20.15625 C 14.1875 -20.15625 16.300781 -19.519531 17.8125 -18.25 C 19.332031 -16.988281 20.101562 -15.226562 20.125 -12.96875 L 20.125 0 L 13.890625 0 L 13.890625 -2.28125 C 12.585938 -0.5625 10.5625 0.296875 7.8125 0.296875 C 5.726562 0.296875 4.070312 -0.28125 2.84375 -1.4375 C 1.613281 -2.59375 1 -4.09375 1 -5.9375 C 1 -7.820312 1.65625 -9.285156 2.96875 -10.328125 C 4.28125 -11.378906 6.164062 -11.914062 8.625 -11.9375 L 13.859375 -11.9375 L 13.859375 -12.234375 C 13.859375 -13.222656 13.53125 -13.992188 12.875 -14.546875 C 12.226562 -15.097656 11.265625 -15.375 9.984375 -15.375 C 8.191406 -15.375 6.210938 -14.820312 4.046875 -13.71875 L 2.25 -17.90625 C 5.46875 -19.40625 8.539062 -20.15625 11.46875 -20.15625 Z M 9.765625 -4.015625 C 10.773438 -4.015625 11.660156 -4.265625 12.421875 -4.765625 C 13.179688 -5.273438 13.660156 -5.9375 13.859375 -6.75 L 13.859375 -8.515625 L 9.84375 -8.515625 C 7.925781 -8.515625 6.96875 -7.800781 6.96875 -6.375 C 6.96875 -5.632812 7.210938 -5.054688 7.703125 -4.640625 C 8.191406 -4.222656 8.878906 -4.015625 9.765625 -4.015625 Z M 9.765625 -4.015625 "/></g></g></g><g fill="#000000" fill-opacity="1"><g transform="translate(140.369814, 202.774697)"><g><path d="M 11.234375 -7.671875 L 9.109375 -5.421875 L 9.109375 0 L 2.734375 0 L 2.734375 -27.34375 L 9.109375 -27.34375 L 9.109375 -12.90625 L 15.671875 -19.859375 L 22.890625 -19.859375 L 15.59375 -12.234375 L 23.109375 0 L 15.546875 0 Z M 11.234375 -7.671875 "/></g></g></g><g fill="#ffffff" fill-opacity="1"><g transform="translate(164.089916, 202.024697)"><g><path d="M 11.765625 -20.09375 C 15.003906 -20.09375 17.617188 -19.160156 19.609375 -17.296875 C 21.597656 -15.441406 22.59375 -12.988281 22.59375 -9.9375 C 22.59375 -6.894531 21.597656 -4.441406 19.609375 -2.578125 C 17.617188 -0.710938 15.003906 0.21875 11.765625 0.21875 C 8.492188 0.21875 5.863281 -0.710938 3.875 -2.578125 C 1.882812 -4.441406 0.890625 -6.894531 0.890625 -9.9375 C 0.890625 -12.988281 1.882812 -15.441406 3.875 -17.296875 C 5.863281 -19.160156 8.492188 -20.09375 11.765625 -20.09375 Z M 11.765625 -15.03125 C 10.429688 -15.03125 9.351562 -14.550781 8.53125 -13.59375 C 7.707031 -12.632812 7.296875 -11.394531 7.296875 -9.875 C 7.296875 -8.332031 7.707031 -7.085938 8.53125 -6.140625 C 9.351562 -5.191406 10.429688 -4.71875 11.765625 -4.71875 C 13.066406 -4.71875 14.128906 -5.191406 14.953125 -6.140625 C 15.773438 -7.085938 16.1875 -8.332031 16.1875 -9.875 C 16.1875 -11.394531 15.773438 -12.632812 14.953125 -13.59375 C 14.128906 -14.550781 13.066406 -15.03125 11.765625 -15.03125 Z M 11.765625 -15.03125 "/></g></g></g><g fill="#ffffff" fill-opacity="1"><g transform="translate(185.46971, 202.024697)"><g><path d="M 9.65625 -20.15625 C 12.582031 -20.15625 15.3125 -19.40625 17.84375 -17.90625 L 15.671875 -13.78125 C 13.210938 -15.113281 11.125 -15.78125 9.40625 -15.78125 C 8.101562 -15.78125 7.453125 -15.320312 7.453125 -14.40625 C 7.453125 -13.914062 7.804688 -13.503906 8.515625 -13.171875 C 9.222656 -12.835938 10.09375 -12.535156 11.125 -12.265625 C 12.15625 -12.003906 13.179688 -11.671875 14.203125 -11.265625 C 15.222656 -10.859375 16.085938 -10.210938 16.796875 -9.328125 C 17.515625 -8.441406 17.875 -7.359375 17.875 -6.078125 C 17.875 -4.085938 17.097656 -2.53125 15.546875 -1.40625 C 14.003906 -0.289062 11.992188 0.265625 9.515625 0.265625 C 5.992188 0.265625 3.019531 -0.671875 0.59375 -2.546875 L 2.609375 -6.59375 C 4.953125 -4.945312 7.300781 -4.125 9.65625 -4.125 C 11.101562 -4.125 11.828125 -4.578125 11.828125 -5.484375 C 11.828125 -6.003906 11.476562 -6.4375 10.78125 -6.78125 C 10.082031 -7.125 9.226562 -7.429688 8.21875 -7.703125 C 7.207031 -7.972656 6.195312 -8.3125 5.1875 -8.71875 C 4.1875 -9.125 3.332031 -9.753906 2.625 -10.609375 C 1.925781 -11.472656 1.578125 -12.554688 1.578125 -13.859375 C 1.578125 -15.847656 2.328125 -17.394531 3.828125 -18.5 C 5.328125 -19.601562 7.269531 -20.15625 9.65625 -20.15625 Z M 9.65625 -20.15625 "/></g></g></g><g fill="#ffffff" fill-opacity="1"><g transform="translate(202.278611, 202.024697)"><g><path d="M 15.78125 -20.15625 C 17.96875 -20.15625 19.722656 -19.460938 21.046875 -18.078125 C 22.367188 -16.691406 23.03125 -14.84375 23.03125 -12.53125 L 23.03125 0 L 16.65625 0 L 16.65625 -10.765625 C 16.65625 -11.921875 16.34375 -12.832031 15.71875 -13.5 C 15.09375 -14.175781 14.238281 -14.515625 13.15625 -14.515625 C 11.925781 -14.515625 10.941406 -14.070312 10.203125 -13.1875 C 9.472656 -12.3125 9.109375 -11.179688 9.109375 -9.796875 L 9.109375 0 L 2.734375 0 L 2.734375 -27.34375 L 9.109375 -27.34375 L 9.109375 -16.59375 C 10.503906 -18.925781 12.726562 -20.113281 15.78125 -20.15625 Z M 15.78125 -20.15625 "/></g></g></g><g fill="#ffffff" fill-opacity="1"><g transform="translate(225.169749, 202.024697)"><g><path d="M 3.328125 -28 C 3.960938 -28.625 4.769531 -28.9375 5.75 -28.9375 C 6.726562 -28.9375 7.53125 -28.625 8.15625 -28 C 8.789062 -27.375 9.109375 -26.566406 9.109375 -25.578125 C 9.109375 -24.597656 8.789062 -23.785156 8.15625 -23.140625 C 7.53125 -22.503906 6.726562 -22.1875 5.75 -22.1875 C 4.769531 -22.1875 3.960938 -22.503906 3.328125 -23.140625 C 2.703125 -23.785156 2.390625 -24.597656 2.390625 -25.578125 C 2.390625 -26.566406 2.703125 -27.375 3.328125 -28 Z M 8.890625 0 L 2.546875 0 L 2.546875 -19.859375 L 8.890625 -19.859375 Z M 8.890625 0 "/></g></g></g></svg>