<svg xmlns="http://www.w3.org/2000/svg" xmlns:xlink="http://www.w3.org/1999/xlink" width="500" zoomAndPan="magnify" viewBox="0 0 375 149.999998" height="200" preserveAspectRatio="xMidYMid meet" version="1.0"><defs><g/><clipPath id="277cea6549"><path d="M 139 27 L 369 27 L 369 127 L 139 127 Z M 139 27 " clip-rule="nonzero"/></clipPath><clipPath id="448cd3fc55"><path d="M 191.179688 184.339844 L 138.125 31.175781 L 317.222656 -30.863281 L 370.277344 122.304688 Z M 191.179688 184.339844 " clip-rule="nonzero"/></clipPath><clipPath id="0f1e4b39b4"><path d="M 169.800781 122.617188 L 139.289062 34.539062 C 138.96875 33.617188 139.113281 32.597656 139.671875 31.796875 C 140.230469 31 141.140625 30.515625 142.113281 30.496094 L 332.585938 27.121094 C 335.089844 27.074219 337.339844 28.644531 338.160156 31.011719 L 368.667969 119.089844 C 368.988281 120.011719 368.847656 121.03125 368.289062 121.832031 C 367.730469 122.632812 366.820312 123.117188 365.84375 123.132812 L 175.375 126.511719 C 172.867188 126.558594 170.621094 124.984375 169.800781 122.617188 Z M 169.800781 122.617188 " clip-rule="nonzero"/></clipPath></defs><g clip-path="url(#277cea6549)"><g clip-path="url(#448cd3fc55)"><g clip-path="url(#0f1e4b39b4)"><path fill="#000000" d="M 191.386719 184.945312 L 137.914062 30.570312 L 316.410156 -31.257812 L 369.882812 123.117188 Z M 191.386719 184.945312 " fill-opacity="1" fill-rule="nonzero"/></g></g></g><g fill="#000000" fill-opacity="1"><g transform="translate(4.955252, 105.121415)"><g><path d="M 52.28125 -48 L 31.53125 4.984375 C 27.96875 13.648438 21.789062 17.984375 13 17.984375 C 7.894531 17.984375 3.234375 16.351562 -0.984375 13.09375 L 5.4375 2.578125 C 7.570312 4.304688 9.675781 5.171875 11.75 5.171875 C 14.488281 5.171875 16.476562 3.890625 17.71875 1.328125 L 18.875 -1.0625 L -1.0625 -48 L 14.78125 -48 L 26.546875 -16.125 L 36.953125 -48 Z M 52.28125 -48 "/></g></g></g><g fill="#000000" fill-opacity="1"><g transform="translate(51.529949, 105.121415)"><g><path d="M 27.703125 -48.71875 C 34.285156 -48.71875 39.398438 -47.1875 43.046875 -44.125 C 46.703125 -41.070312 48.5625 -36.8125 48.625 -31.34375 L 48.625 0 L 33.578125 0 L 33.578125 -5.515625 C 30.429688 -1.359375 25.53125 0.71875 18.875 0.71875 C 13.832031 0.71875 9.828125 -0.675781 6.859375 -3.46875 C 3.890625 -6.257812 2.40625 -9.882812 2.40625 -14.34375 C 2.40625 -18.914062 3.992188 -22.460938 7.171875 -24.984375 C 10.347656 -27.503906 14.90625 -28.796875 20.84375 -28.859375 L 33.484375 -28.859375 L 33.484375 -29.5625 C 33.484375 -31.9375 32.695312 -33.789062 31.125 -35.125 C 29.550781 -36.46875 27.222656 -37.140625 24.140625 -37.140625 C 19.804688 -37.140625 15.023438 -35.800781 9.796875 -33.125 L 5.4375 -43.28125 C 13.207031 -46.90625 20.628906 -48.71875 27.703125 -48.71875 Z M 23.59375 -9.703125 C 26.03125 -9.703125 28.171875 -10.3125 30.015625 -11.53125 C 31.859375 -12.75 33.015625 -14.335938 33.484375 -16.296875 L 33.484375 -20.578125 L 23.78125 -20.578125 C 19.144531 -20.578125 16.828125 -18.851562 16.828125 -15.40625 C 16.828125 -13.625 17.421875 -12.226562 18.609375 -11.21875 C 19.796875 -10.207031 21.457031 -9.703125 23.59375 -9.703125 Z M 23.59375 -9.703125 "/></g></g></g><g fill="#000000" fill-opacity="1"><g transform="translate(99.885722, 105.121415)"><g><path d="M 27.15625 -18.53125 L 22 -13.09375 L 22 0 L 6.59375 0 L 6.59375 -66.078125 L 22 -66.078125 L 22 -31.171875 L 37.84375 -48 L 55.3125 -48 L 37.671875 -29.5625 L 55.84375 0 L 37.578125 0 Z M 27.15625 -18.53125 "/></g></g></g><g fill="#ffffff" fill-opacity="1"><g transform="translate(157.190341, 103.309514)"><g><path d="M 28.40625 -48.53125 C 36.25 -48.53125 42.570312 -46.289062 47.375 -41.8125 C 52.1875 -37.332031 54.59375 -31.410156 54.59375 -24.046875 C 54.59375 -16.679688 52.1875 -10.742188 47.375 -6.234375 C 42.570312 -1.722656 36.25 0.53125 28.40625 0.53125 C 20.507812 0.53125 14.15625 -1.722656 9.34375 -6.234375 C 4.539062 -10.742188 2.140625 -16.679688 2.140625 -24.046875 C 2.140625 -31.410156 4.539062 -37.332031 9.34375 -41.8125 C 14.15625 -46.289062 20.507812 -48.53125 28.40625 -48.53125 Z M 28.40625 -36.34375 C 25.195312 -36.34375 22.597656 -35.179688 20.609375 -32.859375 C 18.628906 -30.546875 17.640625 -27.550781 17.640625 -23.875 C 17.640625 -20.125 18.628906 -17.109375 20.609375 -14.828125 C 22.597656 -12.546875 25.195312 -11.40625 28.40625 -11.40625 C 31.550781 -11.40625 34.117188 -12.546875 36.109375 -14.828125 C 38.097656 -17.109375 39.09375 -20.125 39.09375 -23.875 C 39.09375 -27.550781 38.097656 -30.546875 36.109375 -32.859375 C 34.117188 -35.179688 31.550781 -36.34375 28.40625 -36.34375 Z M 28.40625 -36.34375 "/></g></g></g><g fill="#ffffff" fill-opacity="1"><g transform="translate(208.841094, 103.309514)"><g><path d="M 23.328125 -48.71875 C 30.398438 -48.71875 36.992188 -46.90625 43.109375 -43.28125 L 37.84375 -33.3125 C 31.90625 -36.519531 26.859375 -38.125 22.703125 -38.125 C 19.554688 -38.125 17.984375 -37.023438 17.984375 -34.828125 C 17.984375 -33.640625 18.84375 -32.644531 20.5625 -31.84375 C 22.289062 -31.039062 24.398438 -30.3125 26.890625 -29.65625 C 29.390625 -29 31.867188 -28.179688 34.328125 -27.203125 C 36.796875 -26.222656 38.890625 -24.664062 40.609375 -22.53125 C 42.328125 -20.394531 43.1875 -17.78125 43.1875 -14.6875 C 43.1875 -9.882812 41.316406 -6.128906 37.578125 -3.421875 C 33.835938 -0.722656 28.972656 0.625 22.984375 0.625 C 14.484375 0.625 7.296875 -1.628906 1.421875 -6.140625 L 6.328125 -15.9375 C 11.960938 -11.957031 17.628906 -9.96875 23.328125 -9.96875 C 26.835938 -9.96875 28.59375 -11.066406 28.59375 -13.265625 C 28.59375 -14.515625 27.742188 -15.554688 26.046875 -16.390625 C 24.359375 -17.222656 22.296875 -17.960938 19.859375 -18.609375 C 17.421875 -19.265625 14.984375 -20.082031 12.546875 -21.0625 C 10.117188 -22.039062 8.054688 -23.566406 6.359375 -25.640625 C 4.671875 -27.722656 3.828125 -30.335938 3.828125 -33.484375 C 3.828125 -38.296875 5.632812 -42.035156 9.25 -44.703125 C 12.875 -47.378906 17.566406 -48.71875 23.328125 -48.71875 Z M 23.328125 -48.71875 "/></g></g></g><g fill="#ffffff" fill-opacity="1"><g transform="translate(249.449173, 103.309514)"><g><path d="M 38.125 -48.71875 C 43.40625 -48.71875 47.644531 -47.039062 50.84375 -43.6875 C 54.050781 -40.332031 55.65625 -35.863281 55.65625 -30.28125 L 55.65625 0 L 40.25 0 L 40.25 -26 C 40.25 -28.789062 39.492188 -31.003906 37.984375 -32.640625 C 36.472656 -34.273438 34.410156 -35.09375 31.796875 -35.09375 C 28.828125 -35.09375 26.453125 -34.019531 24.671875 -31.875 C 22.890625 -29.738281 22 -27.007812 22 -23.6875 L 22 0 L 6.59375 0 L 6.59375 -66.078125 L 22 -66.078125 L 22 -40.078125 C 25.382812 -45.710938 30.757812 -48.59375 38.125 -48.71875 Z M 38.125 -48.71875 "/></g></g></g><g fill="#ffffff" fill-opacity="1"><g transform="translate(304.751135, 103.309514)"><g><path d="M 8.046875 -67.640625 C 9.566406 -69.148438 11.515625 -69.90625 13.890625 -69.90625 C 16.265625 -69.90625 18.207031 -69.148438 19.71875 -67.640625 C 21.238281 -66.128906 22 -64.1875 22 -61.8125 C 22 -59.4375 21.238281 -57.472656 19.71875 -55.921875 C 18.207031 -54.378906 16.265625 -53.609375 13.890625 -53.609375 C 11.515625 -53.609375 9.566406 -54.378906 8.046875 -55.921875 C 6.535156 -57.472656 5.78125 -59.4375 5.78125 -61.8125 C 5.78125 -64.1875 6.535156 -66.128906 8.046875 -67.640625 Z M 21.46875 0 L 6.140625 0 L 6.140625 -48 L 21.46875 -48 Z M 21.46875 0 "/></g></g></g></svg>