
<svg xmlns="http://www.w3.org/2000/svg" id="a" width="865.76" height="682.89" viewBox="0 0 865.76 682.89">
  <g>
    <path d="M338.07,330.51l6.06,14.53c.25,.59,.87,.94,1.5,.85l28.37-4.18c.88-.13,1.42-1.03,1.12-1.87l-5.68-15.62c-.17-.46-.64-.73-1.12-.64l-29.51,5.57c-.62,.12-.98,.78-.73,1.36h0Z" fill="#666666" data-secondary="true"></path>
    <path d="M345.42,346.41c-.76,0-1.46-.45-1.76-1.17l-6.06-14.53c-.17-.42-.15-.89,.06-1.29,.22-.4,.59-.67,1.04-.76l29.51-5.57c.72-.14,1.43,.27,1.68,.96l5.68,15.62c.2,.54,.14,1.13-.15,1.63-.29,.49-.79,.83-1.36,.91l-28.37,4.18c-.09,.01-.19,.02-.28,.02h0Zm-6.89-16.09l6.06,14.53c.16,.38,.56,.61,.97,.55l28.37-4.18c.27-.04,.51-.2,.65-.43,.14-.23,.17-.52,.07-.77l-5.68-15.62c-.08-.23-.32-.36-.56-.32l-29.51,5.57c-.15,.03-.27,.12-.34,.25s-.08,.29-.02,.43h-.01Z" fill="#231f20"></path>
  </g>
  <g>
    <path d="M370.96,356.93s-1.49,9.78-2.15,10.77l-15.74-21.32s.98-1.64,0-3.61c0,0,1.64-.98,0-3.28l-2.3-3.28s-.59-1.19-1.78-1.02c-.06,0-.1-.06-.06-.11l2.53-2.95c.71-.83,.62-2.07-.2-2.79h0c-.68-.59-1.66-.66-2.41-.16l-10.54,7.03s-2.95,1.64,.66,5.9c0,0-2.95,3.61,0,5.9,0,0-.33,5.9,3.28,7.87,0,0,1.97,1.31,3.94,5.58,0,0,12.13,28.21,20.66,33.45,0,0,2.62,2.25,9.35,2.27l10.99-7.52-3.61-34.44s-10.14,.77-12.61,1.69v.02Z" fill="#fff"></path>
    <path d="M376.35,397.69h-.16c-6.83-.02-9.56-2.3-9.67-2.39-8.5-5.22-20.3-32.48-20.8-33.64-1.86-4.04-3.74-5.35-3.76-5.36-3.4-1.85-3.53-6.85-3.51-8.06-.75-.65-1.18-1.44-1.28-2.35-.18-1.59,.71-3.11,1.15-3.76-1.3-1.63-1.84-3.1-1.61-4.38,.25-1.36,1.3-1.96,1.34-1.98l10.51-7.01c.93-.62,2.17-.54,3.02,.2,1.02,.89,1.13,2.46,.25,3.49l-1.99,2.32c.9,.3,1.34,1.17,1.37,1.21l2.26,3.22c.68,.95,.94,1.83,.77,2.63-.1,.5-.36,.85-.57,1.08,.62,1.53,.22,2.84-.03,3.42l15.01,20.33c.46-1.73,1.21-5.93,1.8-9.8l.04-.29,.27-.1c2.51-.94,12.33-1.69,12.75-1.73l.48-.04,3.69,35.22-11.36,7.78h.03Zm-26.39-68.35c-.29,0-.57,.08-.82,.25l-10.54,7.03c-.06,.04-.73,.43-.88,1.33-.18,1.03,.39,2.36,1.64,3.84l.27,.32-.26,.32s-1.37,1.71-1.18,3.36c.08,.72,.44,1.32,1.1,1.84l.21,.16v.26c-.02,.06-.28,5.61,3.01,7.4,.12,.08,2.15,1.46,4.15,5.8,.13,.29,12.17,28.13,20.47,33.24,.09,.07,2.63,2.14,8.93,2.2l10.61-7.26-3.53-33.66c-1.96,.16-9.3,.79-11.72,1.53-.33,2.17-1.53,9.7-2.18,10.67l-.4,.59-16.36-22.16,.17-.29c.03-.06,.82-1.44-.02-3.13l-.21-.41,.4-.24s.37-.24,.46-.73c.1-.5-.11-1.13-.61-1.83l-2.3-3.28c-.05-.1-.5-.92-1.3-.81l-.34,.05-.23-.34c-.11-.21-.09-.46,.07-.64l2.53-2.95c.53-.62,.46-1.55-.15-2.09-.28-.24-.63-.37-.98-.37h-.01Z" fill="#231f20"></path>
  </g>
  <g>
    <path d="M460.02,339.8l8.43,2.74c.4,.13,.62,.57,.48,.96l-3.48,10.02,3.07,4.34,8.05-13.32c.25-.41,.06-.94-.39-1.1l-16.19-5.92,.02,2.27h.01Z" fill="#ff6600" data-primary="true"></path>
    <path d="M468.55,358.77l-3.66-5.18,3.56-10.26c.03-.09,0-.16-.01-.2-.02-.04-.06-.1-.15-.13l-8.77-2.85-.03-3.35,16.87,6.17c.35,.13,.63,.41,.75,.76,.12,.36,.08,.74-.11,1.07l-8.45,13.97Zm-2.55-5.34l2.48,3.51,7.66-12.67c.05-.09,.04-.17,.02-.22-.01-.04-.05-.12-.15-.15l-15.52-5.67v1.19l8.1,2.63c.32,.1,.58,.33,.74,.63s.17,.65,.06,.97l-3.39,9.77h0Z" fill="#231f20"></path>
  </g>
  <g>
    <path d="M449.01,450.57s-.61,3.34-4.65,3.85l.34,5.9s6.76-.23,8.73-8.05l.66-3.89-5.08,2.19h0Z" fill="#ff6600" data-primary="true"></path>
    <path d="M444.23,460.83l-.4-6.85,.46-.06c3.61-.46,4.2-3.33,4.22-3.45l.05-.26,6.17-2.66-.81,4.79c-2.05,8.13-9.14,8.46-9.21,8.47l-.49,.02h0Zm.66-5.99l.28,4.92c1.54-.22,6.2-1.39,7.78-7.62l.5-2.94-4.02,1.73c-.25,.83-1.26,3.29-4.54,3.91h0Z" fill="#231f20"></path>
  </g>
  <g>
    <path d="M431.46,651.06c-8.2,.33-25.25,3.28-25.25,3.28-18.04,4.92-40.01,0-40.01,0,.33-5.9,15.09-8.2,15.09-8.2,10.17-2.95,19.08-11.18,19.08-11.18,2.69-1.67,6.5-.95,6.5-.95l4.26,2.95,19.02,3.94,1.31,10.17h0Z" fill="#ff6600" data-primary="true"></path>
    <path d="M387.88,657.02c-11.83,0-21.65-2.15-21.8-2.19l-.41-.09,.02-.42c.35-6.24,14.89-8.57,15.51-8.67,9.88-2.87,18.73-10.98,18.82-11.06,2.9-1.81,6.77-1.11,6.93-1.08l.19,.08,4.18,2.89,19.27,3.99,1.43,11.06-.55,.02c-8.07,.32-25.02,3.24-25.19,3.27-5.99,1.64-12.46,2.18-18.41,2.18v.02Zm-21.12-3.07c3.2,.65,23.02,4.36,39.33-.09,.21-.04,16.49-2.84,24.82-3.27l-1.2-9.27-18.86-3.94-4.17-2.89c-.6-.09-3.79-.5-6.04,.9-.02,.03-9.05,8.29-19.21,11.24-.2,.04-13.69,2.2-14.67,7.32h0Z" fill="#231f20"></path>
  </g>
  <g>
    <path d="M445.89,522.83l-.98-58.38-2.62-46.9-14.76-13.12-29.85-8.53-17.71,7.22s-27.55,72.81-31.16,104.62c0,0-1.97,6.56,2.3,14.76,0,0,29.85,56.74,48.21,78.71l-1.64,25.58s9.84,6.56,37.39,4.92c0,0,11.81-72.48,10.82-108.89h0Zm-52.8-8.19l7.47-25.51c.07-.24,.42-.19,.42,.06l.63,43.49-8.53-18.04h0Z" fill="#666666" data-secondary="true"></path>
    <path d="M426.44,632.48c-20.87,0-28.68-5.03-29.04-5.27l-.24-.16,1.65-25.67c-18.2-21.87-47.84-78.08-48.14-78.65-4.31-8.29-2.42-14.86-2.33-15.13,3.56-31.42,30.89-103.93,31.17-104.66l.08-.2,18.07-7.36,30.21,8.68,14.91,13.26v.21l2.63,46.9,.98,58.4c.97,36.04-10.71,108.25-10.83,108.98l-.06,.4-.4,.02c-3.1,.19-5.99,.27-8.65,.27v-.02Zm-28.26-5.96c1.66,.94,12.02,6.11,36.44,4.72,.93-5.83,11.69-73.84,10.75-108.4h0l-.98-58.38-2.61-46.67-14.52-12.9-29.57-8.45-17.35,7.07c-1.62,4.3-27.59,73.73-31.05,104.3-.04,.15-1.87,6.57,2.24,14.47,.3,.56,30.03,56.94,48.15,78.62l.13,.15-1.63,25.48h0Zm3.95-91.57l-9.59-20.29,7.52-25.7c.1-.34,.43-.55,.78-.51,.35,.05,.61,.34,.62,.7l.67,45.8Zm-8.53-20.38l7.46,15.78-.57-39.31-6.89,23.53h0Z" fill="#231f20"></path>
  </g>
  <g>
    <path d="M630.65,140.22l-320.43,18.13c-5.82,.33-11.38-2.44-14.63-7.28l-61.48-89.66c-.74-1.07-.94-2.28-.74-3.4,.36-1.96,1.99-3.64,4.26-3.77l320.19-17.47c5.44-.29,10.64,2.31,13.66,6.85l61.41,92.11c.25,.37,.4,.77,.46,1.18,.25,1.6-.91,3.22-2.7,3.32h0Z" fill="#ff6600" data-primary="true"></path>
    <path d="M309.3,158.87c-5.62,0-10.97-2.83-14.12-7.53l-61.47-89.66c-.77-1.12-1.06-2.46-.81-3.77,.43-2.33,2.37-4.05,4.73-4.18l320.19-17.47c5.6-.3,11,2.41,14.1,7.07l61.41,92.11c.28,.43,.46,.89,.54,1.38,.14,.94-.12,1.91-.73,2.65-.6,.75-1.47,1.19-2.44,1.24l-320.43,18.13c-.32,.02-.63,.03-.95,.03h-.02Zm249.34-121.63c-.26,0-.52,0-.78,.02L237.67,54.73c-1.89,.1-3.45,1.48-3.8,3.36-.19,1.05,.04,2.13,.66,3.02l61.48,89.66c3.14,4.68,8.58,7.38,14.19,7.07l320.43-18.13c.68-.04,1.3-.35,1.72-.87,.43-.53,.62-1.21,.52-1.87-.05-.34-.18-.67-.38-.98l-61.41-92.11c-2.76-4.15-7.47-6.65-12.43-6.65h-.01Z" fill="#231f20"></path>
  </g>
  <g>
    <path d="M633.47,125.95l-.09,9.83c-.06-.4-.21-.8-.46-1.18l-61.41-92.11c-3.02-4.54-8.21-7.14-13.66-6.85L237.67,53.12c-2.27,.12-3.9,1.81-4.26,3.77l-1.08-8.77c-.31-2.48,1.55-4.7,4.04-4.85l320.54-18.73c5.34-.31,10.46,2.2,13.49,6.61l61.55,89.81c1.01,1.47,1.54,3.21,1.52,4.99h0Z" fill="#231f20"></path>
    <path d="M632.88,135.86c-.05-.34-.18-.67-.38-.98l-61.41-92.11c-2.91-4.37-7.97-6.91-13.21-6.63L237.69,53.62c-1.89,.1-3.45,1.48-3.8,3.36l-.59,3.2-1.48-12c-.17-1.34,.22-2.64,1.08-3.68s2.08-1.65,3.42-1.73l320.54-18.73c5.49-.32,10.82,2.3,13.93,6.83l61.55,89.81c1.07,1.56,1.63,3.39,1.61,5.28l-.09,9.83-.99,.07h.01Zm-74.22-100.73c5.29,0,10.32,2.67,13.26,7.09l60.97,91.45,.07-7.72c.02-1.69-.48-3.31-1.43-4.7l-61.55-89.81c-2.91-4.25-7.91-6.69-13.05-6.4L236.39,43.77c-1.07,.06-2.03,.55-2.71,1.37s-.99,1.86-.86,2.92l.85,6.86c.87-1.32,2.32-2.2,3.98-2.29l320.19-17.47c.28-.02,.56-.02,.84-.02h-.02Z" fill="#231f20"></path>
  </g>
  <g>
    <polygon points="252.35 59.69 544.32 43.54 609.51 138.26 318.1 155.53 252.35 59.69" fill="#fff"></polygon>
    <path d="M317.84,156.05L251.43,59.24l.89-.05,292.25-16.17,.16,.23,65.69,95.45-.88,.05-291.7,17.29h0ZM253.26,60.15l65.09,94.87,290.25-17.2-64.53-93.76L253.26,60.15Z" fill="#231f20"></path>
  </g>
  <g>
    <path d="M583.65,85.44l13.06,18.91c.65,.94,1.84,1.34,2.92,.98h0c1.6-.53,2.26-2.45,1.32-3.86l-12.68-19.03c-.63-.94-1.79-1.36-2.87-1.03l-.38,.11c-1.67,.5-2.36,2.48-1.37,3.92Z" fill="#231f20"></path>
    <path d="M598.83,105.96c-.99,0-1.95-.48-2.53-1.32l-13.06-18.91c-.56-.82-.7-1.82-.37-2.76s1.06-1.64,2.01-1.92l.38-.11c1.3-.39,2.68,.11,3.43,1.24l12.68,19.03c.53,.8,.66,1.78,.35,2.7-.31,.91-1.02,1.61-1.93,1.91-.32,.1-.64,.16-.96,.16v-.02Zm-14.77-20.8l13.06,18.91c.52,.75,1.49,1.07,2.35,.79,.62-.21,1.09-.68,1.3-1.29,.21-.61,.12-1.28-.24-1.82l-12.68-19.03c-.51-.76-1.44-1.1-2.31-.83l-.38,.11c-.64,.19-1.13,.66-1.36,1.29-.22,.63-.13,1.31,.25,1.86h.01Z" fill="#231f20"></path>
  </g>
  <g>
    <path d="M396.37,311.95s-23.94,10.49-25.58,24.6l-1.31,20.33,14.1-1.64s-.66,23.61-5.9,33.78c0,0-4.59,9.84,2.3,14.1,0,0,16.07,.98,32.47,6.89,0,0,14.76,4.26,29.85,7.54,0,0,2.13,.24,2.77-7.35,.21-2.52,.15-5.05-.12-7.56l-1.01-9.37,10.49-26.24,2.62,.66,2.62-23.29s3.61-16.07-5.25-22.63c0,0-7.22-7.87-22.63-15.09l-20.99,2.62-14.43,2.62v.03Z" fill="#ff6600" data-primary="true"></path>
    <path d="M442.3,418.05h-.07c-14.98-3.25-29.78-7.52-29.93-7.56-16.17-5.82-32.2-6.86-32.36-6.87h-.13l-.11-.07c-7.18-4.45-2.53-14.64-2.49-14.74,4.69-9.09,5.69-29.33,5.84-33.01l-14.12,1.64,1.35-20.93c1.66-14.25,24.89-24.59,25.88-25.02l.11-.03,14.43-2.62,21.16-2.65,.13,.06c15.33,7.17,22.71,15.12,22.79,15.2,8.94,6.61,5.52,22.41,5.37,23.08l-2.68,23.8-2.75-.69-10.29,25.72,1,9.24c.29,2.64,.33,5.22,.12,7.65-.33,3.88-1.12,6.44-2.29,7.4-.43,.35-.8,.4-.96,.4h0Zm-62.17-15.42c1.56,.11,16.97,1.32,32.48,6.91,.12,.03,14.88,4.29,29.78,7.52-.05-.02,1.62-.34,2.17-6.9,.2-2.37,.16-4.88-.12-7.46l-1.03-9.49,10.7-26.76,2.49,.62,2.56-22.72c.04-.21,3.44-15.88-5.05-22.17-.14-.14-7.37-7.91-22.41-14.97l-20.85,2.61-14.34,2.61c-1.25,.56-23.68,10.83-25.23,24.17l-1.27,19.71,14.08-1.64-.02,.58c-.03,.97-.72,23.84-5.96,34-.03,.08-4.26,9.37,2.01,13.38h0Z" fill="#231f20"></path>
  </g>
  <g>
    <path d="M419.26,362.95s-4.3-47.04,21.17-51.64l5.93,3.78s-12.93-4.12-17.2,17.86c0,0-1.97,9.84-2.3,22.3,0,0-.33,12.79-2.76,11.1l-4.85-3.39h.01Z" fill="#666666" data-secondary="true"></path>
    <path d="M424.53,366.99c-.24,0-.48-.08-.71-.24l-5.04-3.53-.02-.23c-.04-.47-4.04-47.54,21.58-52.18l.19-.03,9.29,5.91-3.61-1.13s-3.75-1.13-7.71,1.23c-4.27,2.54-7.24,8.01-8.84,16.25-.02,.1-1.96,9.95-2.29,22.22-.06,2.48-.42,10.65-2.34,11.62-.16,.08-.32,.12-.49,.12h-.01Zm-4.8-4.33l4.65,3.26c.12,.08,.16,.06,.18,.05,.95-.48,1.67-5.96,1.8-10.76,.33-12.36,2.29-22.29,2.31-22.39,1.66-8.54,4.8-14.23,9.33-16.92,2.34-1.39,4.56-1.68,6.15-1.64l-3.83-2.44c-23.62,4.5-20.86,47.3-20.59,50.84h0Z" fill="#231f20"></path>
  </g>
  <path d="M431.13,339.01c-.11,0-.23-.04-.32-.12-.21-.18-.24-.49-.06-.7,.52-.61,12.78-14.94,26.33-13.95,.28,.02,.48,.26,.46,.54-.02,.27-.25,.48-.54,.46-13.03-.95-25.37,13.45-25.49,13.6-.1,.12-.24,.18-.38,.18h0Z" fill="#231f20"></path>
  <path d="M353.07,343.27c-.13,0-.27-.05-.37-.16l-3.16-3.42c-.37-.4-.91-.58-1.45-.5l-4.78,.8c-.27,.05-.53-.14-.58-.41s.14-.53,.41-.58l4.78-.8c.87-.14,1.75,.16,2.35,.81l3.16,3.42c.19,.2,.17,.52-.03,.71-.1,.09-.22,.13-.34,.13h0Z" fill="#231f20"></path>
  <path d="M352.02,347.11c-.95,0-1.46-.53-1.61-.72l-3.26-2.96s-.11-.05-.16-.02l-5.19,2.44c-.25,.12-.55,0-.67-.24-.12-.25-.01-.55,.24-.67l5.19-2.44c.42-.2,.91-.12,1.26,.19l3.29,2.99s.06,.06,.08,.09c.04,.06,.5,.62,1.69,.14,.25-.1,.55,.02,.65,.28s-.02,.55-.28,.65c-.48,.19-.89,.26-1.24,.26h.01Z" fill="#231f20"></path>
  <path d="M345.2,352.46c-.17,0-.33-.08-.42-.23l-1.64-2.62c-.11-.18-.1-.41,.03-.57,.13-.17,.35-.23,.55-.16h.07c.22,0,.94-.09,2.04-1.19,.17-.17,.44-.19,.64-.06,.02,.01,1.69,1.17,3.13,.73,.74-.23,1.32-.86,1.71-1.89,.1-.26,.39-.39,.65-.29,.26,.1,.39,.39,.29,.65-.51,1.33-1.31,2.17-2.36,2.48-1.46,.44-2.97-.27-3.64-.65-.73,.67-1.36,.98-1.83,1.11l1.2,1.93c.15,.23,.08,.54-.16,.69-.08,.05-.17,.08-.26,.08h0Z" fill="#231f20"></path>
  <path d="M386.49,336.79h0c-.28,0-.5-.23-.5-.5,0-.18,.07-4.52,2.09-7.56,.15-.23,.46-.29,.69-.14s.29,.46,.14,.69c-1.86,2.79-1.93,6.98-1.93,7.02,0,.27-.23,.5-.5,.5h0Z" fill="#231f20"></path>
  <path d="M425.56,408.87c-.12,0-.22-.04-.31-.1-1.28-.51-14.99-4.7-24.11-7.46-11.86-3.85-21.31-1.98-21.4-1.96-.27,.05-.54-.12-.59-.39s.12-.53,.39-.59c.1-.02,9.78-1.95,21.9,1.98,17.55,5.31,22.64,6.86,24.08,7.52h.04v.02c.55,.26,.53,.38,.51,.55-.04,.25-.26,.43-.51,.43h0Z" fill="#231f20"></path>
  <path d="M440.97,412.48h-.06c-5.24-.65-7.23-1.31-7.31-1.33-.26-.09-.4-.37-.32-.63,.09-.26,.37-.4,.63-.32,.02,0,2.01,.65,7.12,1.29,.27,.03,.47,.28,.43,.56-.03,.25-.25,.44-.5,.44h.01Z" fill="#231f20"></path>
  <path d="M400.3,489.55c-.26,0-.48-.2-.5-.46l-5.9-71.83c-.02-.28,.18-.52,.46-.54,.28-.02,.52,.18,.54,.46l5.9,71.83c.02,.28-.18,.52-.46,.54h-.04Z" fill="#231f20"></path>
  <path d="M445.89,523.33h0l-30.17-.33c-.26,0-.48-.21-.49-.47l-1.97-36.08c0-.14,.04-.28,.14-.38s.24-.15,.38-.15l31.88,1.57c.28,.01,.49,.25,.48,.52s-.26,.5-.52,.48l-31.33-1.54,1.91,35.05,29.7,.32c.28,0,.5,.23,.49,.51,0,.27-.23,.49-.5,.49h0Z" fill="#231f20"></path>
  <path d="M431.13,501.35c-.11,0-.23-.04-.32-.12l-13.45-11.15c-.21-.18-.24-.49-.07-.7,.18-.21,.49-.24,.7-.07l13.12,10.88,12.47-10.87c.21-.18,.52-.16,.71,.05,.18,.21,.16,.52-.05,.71l-12.79,11.15c-.09,.08-.21,.12-.33,.12h.01Z" fill="#231f20"></path>
  <path d="M431.13,577.44c-.14,0-.28-.06-.38-.18-27.61-32.81-40.95-68.99-41.08-69.35-.09-.26,.04-.55,.3-.64,.26-.09,.55,.04,.64,.3,.13,.36,13.41,36.38,40.91,69.05,.18,.21,.15,.53-.06,.7-.09,.08-.21,.12-.32,.12h0Z" fill="#231f20"></path>
  <path d="M416.79,620.27c-1.2,0-2.37-.39-3.35-1.13-6.5-4.93-14.22-17.15-14.55-17.66-.15-.23-.08-.54,.16-.69,.23-.15,.54-.08,.69,.16,.08,.13,7.95,12.58,14.3,17.4,1.09,.82,2.48,1.12,3.81,.8s2.44-1.21,3.05-2.44c3.15-6.45,10.54-23.12,11.05-38.47,0-.28,.24-.49,.52-.48,.28,0,.49,.24,.48,.52-.51,15.54-7.97,32.36-11.15,38.87-.73,1.5-2.09,2.58-3.71,2.97-.43,.1-.86,.15-1.3,.15Z" fill="#231f20"></path>
  <g>
    <path d="M425.39,607.47s5.08,3.26,7.71,8.83c0,0,0-4.59,5.58-5.9,0,0,4.59-7.22,4.92-18.37l-11.17-12.77s.02,10.85-7.03,28.21h0Z" fill="#fff"></path>
    <path d="M433.6,618.54l-.95-2.02c-2.53-5.38-7.48-8.59-7.52-8.62l-.35-.22,.16-.38c6.93-17.05,6.99-27.91,6.99-28.02v-1.33l12.18,13.92v.2c-.33,11.16-4.81,18.32-5,18.62l-.11,.17-.2,.05c-5.13,1.21-5.19,5.37-5.19,5.42v2.21Zm-7.6-11.26c1.1,.77,4.54,3.39,6.87,7.51,.49-1.56,1.82-3.89,5.48-4.83,.67-1.13,4.4-7.9,4.73-17.75l-10.23-11.68c-.23,3.33-1.34,13.05-6.86,26.75h0Z" fill="#231f20"></path>
  </g>
  <g>
    <path d="M443.59,592.03l3.94,1.64s5.58,18.04-3.28,17.38c0,0-3.61-.66-5.58-.66,0,0,4.59-7.22,4.92-18.37h0Z" fill="#e6e7e8"></path>
    <path d="M444.71,611.57c-.16,0-.33,0-.5-.02-.09-.01-3.64-.65-5.54-.65h-.91l.49-.77c.04-.07,4.52-7.24,4.84-18.11l.02-.73,4.82,2.01,.07,.22c.15,.49,3.69,12.13,.26,16.44-.85,1.07-2.05,1.61-3.56,1.61h.01Zm-5.19-1.64c2.01,.13,4.68,.61,4.81,.63,1.36,.1,2.41-.3,3.15-1.22,2.87-3.6,.1-13.67-.37-15.3l-3.05-1.27c-.41,8.87-3.4,15.09-4.54,17.16Z" fill="#231f20"></path>
  </g>
  <g>
    <path d="M446.88,657.54c-.48,.32-1.05,.48-1.6,.45-.47-.02-.93-.18-1.33-.46-1.5-1.07-3.55-3.64-3.96-9.75,0,0-2.3-23.29-6.89-31.48,0,0,.33-4.92,5.58-5.9,0,0,1.97,0,5.58,.66,0,0,6.23,1.5,4.76-10.24,0,0-.49-3.87-1.48-7.15l7.87,2.62,1.31,26.89s.3,27.52-9.84,34.35h0Z" fill="#ff6600" data-primary="true"></path>
    <path d="M445.39,658.5h-.14c-.58-.03-1.13-.22-1.6-.55-1.67-1.19-3.75-3.92-4.16-10.12-.02-.22-2.34-23.26-6.82-31.27l-.07-.13v-.15s.43-5.32,5.99-6.36c.18,0,2.15,0,5.76,.66,.08,.02,1.5,.33,2.69-.75,1.07-.97,2.19-3.3,1.48-8.93,0-.04-.5-3.86-1.46-7.07l-.28-.92,9.11,3.04,1.33,27.24c.01,1.15,.19,27.89-10.06,34.79h0c-.52,.35-1.14,.54-1.76,.54v-.02Zm-11.79-42.3c4.54,8.31,6.78,30.59,6.87,31.54,.39,5.83,2.25,8.32,3.75,9.39,.31,.22,.68,.35,1.07,.37,.45,.02,.92-.11,1.3-.37h0c9.8-6.61,9.62-33.66,9.62-33.94l-1.29-26.53-6.65-2.22c.81,3.03,1.21,6.17,1.23,6.31,.61,4.88,0,8.18-1.82,9.81-1.59,1.42-3.47,.99-3.55,.97-3.48-.63-5.44-.64-5.46-.64-4.25,.8-4.96,4.54-5.06,5.3h-.01Z" fill="#231f20"></path>
  </g>
  <g>
    <path d="M456.38,644.51s-4.55,16.3-11.13,13.56l.02-.08c.55,.03,1.12-.13,1.6-.45,10.14-6.83,9.84-34.35,9.84-34.35l-1.31-26.89s4.26,0,4.92,5.25c0,0,.98,21.97-3.94,42.96Z" fill="#231f20"></path>
    <path d="M446.75,658.88c-.56,0-1.12-.12-1.68-.35l-.38-.16,.18-.82,.44-.06c.45,.02,.92-.11,1.3-.37,9.8-6.61,9.62-33.66,9.62-33.93l-1.34-27.4h.52s4.71,.06,5.42,5.69c.01,.26,.93,22.32-3.94,43.14v.02c-.13,.46-3.22,11.37-8.16,13.77-.65,.32-1.31,.47-1.96,.47h-.02Zm9.18-62.03l1.28,26.31c.01,1.15,.19,27.55-9.86,34.66,.31-.06,.61-.16,.92-.32,4.47-2.17,7.52-12.75,7.63-13.13,4.84-20.67,3.93-42.6,3.92-42.82-.46-3.7-2.82-4.53-3.89-4.72v.02Z" fill="#231f20"></path>
  </g>
  <g>
    <path d="M430.15,640.9c-3.94,2.3-14.76,4.26-14.76,4.26-8.01,1.14-7.54-4.94-7.28-6.52,.07-.44,.07-.89-.05-1.33-.92-3.52-6.99-2.47-7.69-2.34-.01,0-.02-.01,0-.02,.87-.45,1.6-1.24,2.18-2.08,1.17-1.67,1.78-3.57,1.78-3.57,9.75,3.05,25.18,2.56,25.18,2.56l.35,4.99,.29,4.02v.03Z" fill="#fff"></path>
    <path d="M413.53,645.8c-1.98,0-3.5-.53-4.54-1.58-1.77-1.8-1.55-4.56-1.38-5.66,.06-.4,.05-.78-.04-1.12-.8-3.06-6.47-2.09-7.11-1.97l-.42,.08-.31-.82,.4-.22c.69-.36,1.37-1.01,2-1.92,1.11-1.58,1.71-3.41,1.71-3.43l.15-.47,.47,.15c9.55,2.99,24.86,2.55,25.01,2.54l.48-.02,.69,9.81-.27,.16c-3.97,2.31-14.48,4.24-14.92,4.32-.69,.1-1.34,.15-1.95,.15h.03Zm-10.44-11.57c2.17,0,4.82,.53,5.45,2.96,.12,.47,.14,.99,.06,1.53-.15,.95-.35,3.32,1.1,4.8,1.12,1.13,3.01,1.52,5.62,1.15,.09-.02,10.29-1.89,14.31-4.05l-.58-8.22c-2.65,.05-15.65,.14-24.4-2.46-.26,.68-.82,2.01-1.68,3.24-.29,.41-.58,.78-.89,1.09,.32-.02,.67-.04,1.02-.04h-.01Z" fill="#231f20"></path>
  </g>
  <g>
    <path d="M430.15,640.9c-3.94,2.3-14.76,4.26-14.76,4.26-8.01,1.14-7.54-4.94-7.28-6.52,.07-.44,.07-.89-.05-1.33-.92-3.52-6.99-2.47-7.69-2.34-.01,0-.02-.01,0-.02,.87-.45,1.6-1.24,2.18-2.08l27.31,3.99,.29,4.02v.02Z" fill="#e6e7e8"></path>
    <path d="M413.53,645.8c-1.98,0-3.5-.53-4.54-1.58-1.77-1.8-1.55-4.56-1.38-5.66,.06-.4,.05-.78-.04-1.12-.8-3.06-6.47-2.09-7.11-1.97l-.42,.08-.31-.82,.4-.22c.69-.36,1.37-1.01,2-1.92l.18-.25,28.02,4.09,.34,4.74-.27,.16c-3.97,2.31-14.48,4.24-14.92,4.32-.69,.1-1.34,.15-1.95,.15h0Zm-10.44-11.57c2.17,0,4.82,.53,5.45,2.96,.12,.47,.14,.99,.06,1.53-.15,.95-.35,3.32,1.1,4.8,1.12,1.13,3.01,1.52,5.62,1.15,.09-.02,10.29-1.89,14.31-4.05l-.23-3.31-26.61-3.89c-.23,.31-.47,.59-.71,.84,.32-.02,.67-.04,1.02-.04h0Z" fill="#231f20"></path>
  </g>
  <g>
    <path d="M431.46,651.06v3.62c0,.78-.55,1.46-1.31,1.62-8.09,1.69-28.53,1.98-28.53,1.98-21.65,.66-34.76-2.3-34.76-2.3-.98-.33-.66-1.64-.66-1.64,0,0,21.97,4.92,40.01,0,0,0,17.05-2.95,25.25-3.28h0Z" fill="#231f20"></path>
    <path d="M395.44,658.87c-17.8,0-28.59-2.38-28.7-2.4-1.17-.39-1.18-1.64-1.03-2.25l.12-.47,.48,.11c.22,.05,22.06,4.83,39.77,0,.22-.04,17.23-2.97,25.36-3.3l.52-.02v4.14c0,1.02-.72,1.9-1.71,2.11-8.05,1.68-27.79,1.98-28.63,1.99-2.14,.06-4.2,.09-6.18,.09Zm-28.8-3.93c.02,.23,.11,.47,.37,.56,.08,.02,13.27,2.91,34.59,2.27,.21,0,20.49-.31,28.45-1.97,.53-.11,.91-.59,.91-1.13v-3.09c-8.26,.42-24.5,3.22-24.67,3.25-16.31,4.45-36.09,.83-39.65,.11Z" fill="#231f20"></path>
  </g>
  <path d="M435.07,442.32s-.11,0-.16-.03c-7.65-2.66-13.17-13.88-13.4-14.36-.12-.25-.02-.55,.23-.67,.25-.12,.55-.02,.67,.23,.05,.11,5.57,11.32,12.83,13.85,.26,.09,.4,.38,.31,.64-.07,.21-.27,.34-.47,.34h-.01Z" fill="#231f20"></path>
  <g>
    <path d="M459.21,349.55s16.85,8.97,19.15,20.45c0,0,2.62,7.54,1.64,41.65,0,0,1.31,15.41-9.84,30.83,0,0-9.18,14.43-20.33,8.53l-5.81-2.93-1.74-30.52s1.68,.21,2.52-6.09c.41-3.09,.41-6.23,.08-9.33l-.96-8.85s8.86-9.51,10.82-26.24l2.3,.66,2.17-18.15h0Z" fill="#666666" data-secondary="true"></path>
    <path d="M455.26,452.91c-1.81,0-3.71-.43-5.67-1.47l-6.06-3.06-1.79-31.41,.59,.07s1.25-.34,1.96-5.66c.39-2.95,.42-6.05,.08-9.21l-.98-9.08,.16-.17c.09-.09,8.77-9.6,10.69-25.96l.07-.58,2.3,.66,2.19-18.29,.64,.34c.7,.37,17.09,9.21,19.4,20.79,.09,.25,2.62,7.95,1.65,41.77,.01,.1,1.2,15.72-9.93,31.11-.06,.1-6.58,10.14-15.31,10.14h.01Zm-10.76-5.15l5.55,2.8c10.62,5.62,19.6-8.21,19.69-8.35,10.92-15.1,9.78-30.37,9.76-30.52,.96-33.55-1.59-41.46-1.61-41.53-1.99-9.91-15.18-18.03-18.27-19.81l-2.15,17.99-2.3-.66c-1.94,15.13-9.54,24.4-10.73,25.76l.93,8.63c.35,3.25,.32,6.43-.08,9.45-.63,4.71-1.75,6.06-2.49,6.41l1.7,29.82h0Z" fill="#231f20"></path>
  </g>
  <path d="M466.55,408.54h-.06c-.27-.03-.47-.28-.44-.55,2.91-24.92,1.65-46.27,1.64-46.48-.93-5.55-8.77-10.23-8.85-10.27-.24-.14-.32-.45-.18-.68,.14-.24,.45-.32,.68-.18,.34,.2,8.32,4.96,9.33,11.02,.02,.27,1.29,21.7-1.64,46.71-.03,.25-.25,.44-.5,.44h.02Z" fill="#231f20"></path>
  <path d="M443.56,440.07h-.08c-.27-.04-.46-.3-.41-.57,.19-1.15,4.7-28.14,8.73-31.5,.12-.1,.27-.14,.43-.1,.15,.03,15.28,3.36,26.68,8.89,.25,.12,.35,.42,.23,.67s-.42,.35-.67,.23c-10.48-5.09-24.17-8.3-26.2-8.76-3.08,3.19-6.96,23.16-8.21,30.74-.04,.25-.25,.42-.49,.42v-.02Z" fill="#231f20"></path>
  <path d="M287.27,86.79c-.15,0-.29-.04-.42-.11l-7.49-4.21c-.33-.19-.5-.57-.41-.94s.41-.64,.79-.66l9.37-.47c.29,0,.57,.12,.74,.36,.17,.24,.21,.54,.1,.81l-1.87,4.68c-.09,.23-.28,.41-.51,.49-.09,.03-.19,.05-.28,.05h-.02Zm-6.98-4.95l6.91,3.89,1.73-4.32-8.64,.43Zm-.53-.47h0Z" fill="#231f20"></path>
  <path d="M306.28,113.14c-.97,0-2.02-.14-3.08-.42-3.54-.93-5.95-3.05-5.48-4.83s3.61-2.45,7.14-1.53c3.54,.93,5.95,3.05,5.48,4.83h0c-.24,.92-1.16,1.57-2.6,1.82-.45,.08-.94,.12-1.46,.12h0Zm-4.5-6.19c-1.72,0-2.91,.5-3.09,1.2-.27,1.05,1.62,2.79,4.76,3.61,1.49,.39,2.95,.49,4.11,.28,1.02-.18,1.68-.58,1.81-1.09,.27-1.05-1.62-2.79-4.76-3.61-1.03-.27-1.99-.39-2.83-.39Zm8.08,4.13h0Z" fill="#231f20"></path>
  <path d="M318.65,139.32c-.17,0-.32-.08-.42-.22l-4.46-6.69c-.1-.15-.11-.34-.03-.5s.24-.27,.42-.28l9.47-.56c.19,0,.37,.08,.46,.25l3.9,6.69c.09,.15,.09,.33,0,.49-.08,.15-.24,.25-.41,.26l-8.92,.56h0Zm-3.56-6.74l3.81,5.72,7.82-.49-3.34-5.72-8.3,.49h0Z" fill="#231f20"></path>
  <g>
    <ellipse cx="464.36" cy="93.68" rx="74.39" ry="14.49" fill="#e6e7e8"></ellipse>
    <path d="M464.36,108.67c-41.99,0-74.89-6.58-74.89-14.99s32.89-14.99,74.89-14.99,74.89,6.58,74.89,14.99-32.89,14.99-74.89,14.99Zm0-28.97c-44.2,0-73.89,7.23-73.89,13.99s29.69,13.99,73.89,13.99,73.89-7.23,73.89-13.99-29.69-13.99-73.89-13.99Z" fill="#231f20"></path>
  </g>
  <g>
    <path d="M390.53,115.41c-11.14-27.3-24.52-17.83-24.52-17.83-7.8,5.57-1.67,25.07-1.67,25.07,0,0-5.01,.56-14.49-3.34,0,0-12.82-6.69-19.5-2.79l-3.41,2.17c-2.57,1.64-4.05,4.57-3.74,7.61,.21,2.04,.94,4.56,2.7,7.49,0,0-8.36,5.57-7.24,12.26l1.11,15.6s0,4.61,1.48,6.47c.05,.07,0,.17-.09,.14l-6.38-1.7c-2.75-.73-5.69,.34-7.25,2.71-.87,1.31-1.67,3.16-2.24,5.75,0,0-6.13,15.6-8.92,20.62,0,0-2.79,7.24,1.67,7.8,0,0,10.03,3.34,18.94-18.94,0,0,10.59,3.34,16.72,0,0,0,3.89,4.86,8.04,5.5,.71,.11,1.42,.23,2.12,.41,7.29,1.9,45.4,10.53,79-7.03,0,0,6.69,25.07,23.4,18.94,0,0,5.01-2.79,2.23-7.24,0,0-6.69-11.14-10.03-23.4l83.02-75.22s-43.46-30.09-107.54-1.67l-23.4,20.62h-.01Z" fill="#fff"></path>
    <path d="M299.57,204.15c-.99,0-1.59-.19-1.69-.22-.99-.11-1.79-.61-2.29-1.45-1.44-2.4,.24-6.82,.31-7.01,2.77-4.99,8.86-20.46,8.92-20.62,.51-2.34,1.29-4.33,2.29-5.84,1.68-2.54,4.81-3.72,7.8-2.92l5.4,1.44c-1.02-2.21-1.04-5.7-1.04-5.87l-1.11-15.57c-1.02-6.11,5.39-11.21,7.08-12.44-1.44-2.5-2.29-4.96-2.53-7.3-.33-3.22,1.2-6.31,3.97-8.08l3.41-2.17c6.86-4,19.47,2.49,20,2.76,7.34,3.02,12.04,3.33,13.59,3.31-1-3.47-5.25-19.8,2.04-25.01,.16-.11,3.97-2.75,9.27-1.2,6.01,1.75,11.3,8.01,15.73,18.6l23-20.24c33.22-14.73,60.81-13.49,78.1-9.85,18.76,3.94,29.81,11.49,29.92,11.57l.52,.36-83.26,75.44c3.31,11.93,9.83,22.87,9.89,22.98,.85,1.36,1.11,2.73,.77,4.05-.63,2.44-3.08,3.83-3.18,3.88-4.1,1.51-7.9,1.34-11.38-.47-7.94-4.13-11.75-15.43-12.58-18.19-33.61,17.25-71.52,8.69-78.81,6.79-.69-.18-1.4-.29-2.07-.4-3.71-.57-7.12-4.25-8.09-5.37-5.61,2.76-14.23,.57-16.3-.02-6.88,16.94-14.41,19.03-17.71,19.03l.03,.03Zm-2.77-8.25s-1.54,4.1-.36,6.07c.34,.57,.88,.89,1.65,.99,.19,.05,9.82,2.87,18.42-18.63l.17-.43,.44,.14c.1,.03,10.46,3.24,16.33,.04l.37-.2,.26,.33s3.82,4.72,7.72,5.32c.69,.11,1.43,.23,2.17,.42,7.27,1.9,45.23,10.47,78.64-6.99l.55-.29,.16,.6c.04,.14,3.76,13.74,12.25,18.16,3.22,1.67,6.75,1.82,10.5,.45h0s2.12-1.23,2.63-3.23c.27-1.05,.05-2.15-.65-3.28-.07-.12-6.76-11.35-10.09-23.54l-.08-.3,.23-.21,82.54-74.78c-5.17-3.25-47.19-27.56-106.45-1.31l-23.87,21.03-.27-.65c-4.3-10.54-9.61-16.99-15.35-18.67-4.85-1.41-8.38,1.03-8.41,1.06-7.42,5.3-1.54,24.32-1.48,24.52l.18,.58-.6,.07c-.21,.02-5.25,.53-14.73-3.38-.17-.08-12.69-6.53-19.06-2.82l-3.4,2.16c-2.46,1.56-3.8,4.3-3.51,7.14,.23,2.32,1.12,4.77,2.63,7.29l.25,.41-.4,.26c-.08,.05-8.08,5.47-7.03,11.76l1.12,15.65c0,.08,.02,4.5,1.37,6.19,.16,.2,.17,.48,.03,.69s-.4,.31-.64,.25l-6.38-1.7c-2.57-.68-5.27,.32-6.71,2.51-.93,1.41-1.66,3.29-2.17,5.58-.27,.71-6.2,15.76-8.97,20.75h0Z" fill="#231f20"></path>
  </g>
  <path d="M438.45,172.19c-.19,0-.37-.11-.45-.29l-3.9-8.36c-3.71-7.96-12.8-7.52-12.89-7.51-.27,.02-.51-.19-.53-.47s.19-.51,.47-.53c.1,0,9.86-.48,13.85,8.09l3.9,8.36c.12,.25,0,.55-.24,.66-.07,.03-.14,.05-.21,.05h0Z" fill="#231f20"></path>
  <path d="M427.62,157.24c-.23,0-.43-.15-.49-.38-6.22-25.44-27.54-28.66-27.75-28.69-.27-.04-.46-.29-.43-.56,.04-.27,.29-.46,.56-.43,.22,.03,22.2,3.33,28.59,29.45,.07,.27-.1,.54-.37,.6-.04,0-.08,0-.12,0h0Z" fill="#231f20"></path>
  <path d="M398.89,132.07c-.18,0-.36-.1-.44-.27l-8.36-16.16c-.13-.25-.03-.55,.21-.67,.24-.13,.55-.03,.67,.21l8.36,16.16c.13,.25,.03,.55-.21,.67-.07,.04-.15,.06-.23,.06h0Z" fill="#231f20"></path>
  <path d="M378.07,153.82c-.23,0-.38,0-.41-.02-8.63,0-13.61-29.79-13.81-31.06-.04-.27,.14-.53,.41-.57s.53,.14,.57,.41c1.38,8.41,6.37,30.23,12.88,30.23,.08,0,2.83,.25,4.92-1.99,2.39-2.55,3.06-7.42,1.94-14.06-.06-.39-.16-.8-.29-1.21l-4.27-14.42c-.06-.16-1.71-4.7,1.16-9.86,.13-.24,.44-.33,.68-.19,.24,.13,.33,.44,.19,.68-2.63,4.74-1.1,9.01-1.08,9.06l4.28,14.45c.14,.46,.24,.91,.31,1.33,1.19,7.07,.45,12.09-2.21,14.92-1.95,2.08-4.34,2.3-5.28,2.3h0Z" fill="#231f20"></path>
  <path d="M356.68,171.57c-2.11,0-3.69-1.08-3.77-1.14-.03-.02-.06-.05-.09-.08-11.55-13.2-22.7-23.82-22.81-23.93-.07-.07-.13-.16-.15-.26-1.09-5.44-4.38-12.07-4.41-12.13-.12-.25-.02-.55,.22-.67,.25-.12,.55-.02,.67,.22,.14,.27,3.33,6.69,4.47,12.23,1.21,1.16,11.78,11.34,22.72,23.83,.31,.2,2.17,1.3,4.3,.79,1.71-.41,3.19-1.75,4.4-3.99,.02-.04,2.47-5.61-6.67-20.68l-6.66-8.87c-.08-.1-.11-.22-.1-.35,0-.05,.5-5.41-2.12-8.55-.18-.21-.15-.53,.06-.7,.21-.18,.53-.15,.7,.06,2.62,3.14,2.43,8.03,2.36,9.09l6.57,8.76c9.53,15.7,6.85,21.46,6.73,21.7-1.36,2.52-3.06,4.03-5.07,4.51-.48,.11-.94,.16-1.38,.16h.03Z" fill="#231f20"></path>
  <path d="M340.92,189.95c-.7,0-1.39-.18-2.01-.54-2.91-1.66-5.47-4.46-5.58-4.57l-12.48-16.41c-.17-.22-.12-.53,.1-.7s.53-.12,.7,.1l12.45,16.38h0s2.54,2.77,5.31,4.34c.85,.48,1.85,.54,2.75,.15,.92-.39,1.58-1.18,1.82-2.15,1.14-4.63,1.35-14.05-10.06-25.09-.16-.15-.2-.39-.1-.59,.02-.03,1.64-3.24,1.63-9.19,0-.28,.22-.5,.5-.5h0c.28,0,.5,.22,.5,.5,.01,5.17-1.15,8.32-1.58,9.32,11.51,11.27,11.27,20.99,10.08,25.79-.31,1.28-1.19,2.31-2.4,2.83-.52,.23-1.08,.34-1.62,.34h-.01Z" fill="#231f20"></path>
  <path d="M422.85,183.89c-.19,0-.37-.11-.45-.29-5.11-10.79,1.72-17.23,1.79-17.3,.2-.19,.52-.17,.71,.03s.17,.52-.03,.71c-.26,.24-6.35,6.03-1.56,16.13,.12,.25,.01,.55-.24,.67-.07,.03-.14,.05-.21,.05h-.01Z" fill="#231f20"></path>
  <path d="M358.21,193.36c-.23,0-.43-.16-.49-.39-.06-.27,.1-.54,.37-.6,.07-.02,7.01-1.69,9.12-7.48,.09-.26,.38-.39,.64-.3s.39,.38,.3,.64c-2.3,6.31-9.52,8.05-9.83,8.12-.04,0-.08,0-.11,0h0Z" fill="#231f20"></path>
  <path d="M376.91,186.27c-8.85,0-15.99-3.47-16.14-3.54-.25-.12-.35-.42-.22-.67,.12-.25,.42-.35,.67-.22,1.12,.56,27.58,13.39,41.12-13.15,.07-.14,.2-.23,.34-.26,.15-.03,.3,0,.42,.11,.07,.05,6.69,5.46,17.51,5.46,.28,0,.5,.22,.5,.5s-.22,.5-.5,.5c-9.63,0-15.91-4.03-17.66-5.31-6.98,13.25-17.34,16.6-26.05,16.6v-.02Z" fill="#231f20"></path>
  <g>
    <path d="M399.35,301.3l-.03,8.68-2.95,1.97s3.94,12.13,10.82,17.05c0,0,.98,0,6.23-5.58,0,0,12.46-14.76,18.37-16.73,0,0-15.74-4.92-18.69-16.73l-2.8-7.61-3.43,1.38-7.52,17.56h0Z" fill="#fff"></path>
    <path d="M407.19,329.5h-.16l-.13-.09c-6.94-4.96-10.85-16.8-11.01-17.31l-.12-.36,3.05-2.03,.07-8.6,7.6-17.75,4.1-1.65,2.98,8.09c2.87,11.45,18.22,16.37,18.37,16.42l1.48,.46-1.47,.49c-5.7,1.9-18.02,16.43-18.14,16.58-3.45,3.66-5.85,5.75-6.61,5.75h-.01Zm-10.23-17.35c.7,2,4.41,11.92,10.32,16.3,.35-.21,1.82-1.17,5.78-5.37,.46-.55,11.11-13.1,17.36-16.33-3.82-1.44-15.28-6.52-17.81-16.65l-2.61-7.07-2.76,1.11-7.39,17.28-.03,8.84-2.85,1.9h0Z" fill="#231f20"></path>
  </g>
  <g>
    <path d="M399.33,307.17v-5.86l9.92-8.79s-.4,12.5-9.92,14.65Z" fill="#231f20"></path>
    <path d="M398.83,307.79l.02-6.72,10.94-9.71-.04,1.16c0,.13-.52,12.91-10.31,15.12l-.61,.14h0Zm1.01-6.26v4.99c6.77-1.96,8.41-9.75,8.8-12.79l-8.8,7.8h0Z" fill="#231f20"></path>
  </g>
  <g>
    <rect x="382.23" y="261.58" width="26.42" height="40.13" rx="13.21" ry="13.21" transform="translate(-47.21 82.25) rotate(-11.21)" fill="#fff"></rect>
    <path d="M396.75,302.06c-2.69,0-5.31-.79-7.59-2.32-3.04-2.04-5.11-5.14-5.82-8.73l-2.67-13.45c-.71-3.59,.02-7.25,2.05-10.29,2.04-3.04,5.14-5.11,8.73-5.82,3.59-.71,7.25,.02,10.29,2.05,3.04,2.04,5.11,5.14,5.82,8.73l2.67,13.45c.71,3.59-.02,7.25-2.05,10.29-2.04,3.04-5.14,5.11-8.73,5.82h0c-.9,.18-1.8,.27-2.69,.27h-.01Zm-2.61-39.87c-.83,0-1.67,.08-2.5,.25-3.33,.66-6.2,2.58-8.09,5.4-1.89,2.82-2.56,6.21-1.9,9.54l2.67,13.45c.66,3.33,2.58,6.2,5.4,8.09,2.82,1.89,6.21,2.56,9.54,1.9h0c3.33-.66,6.2-2.58,8.09-5.4,1.89-2.82,2.56-6.21,1.9-9.54l-2.67-13.45c-.66-3.33-2.58-6.2-5.4-8.09-2.12-1.42-4.55-2.15-7.04-2.15Z" fill="#231f20"></path>
  </g>
  <g>
    <path d="M389.48,255.53c6.61-2.75,13.77-4.92,13.77-4.92,8.53-5.58,12.13,3.94,12.13,3.94,1.31,3.61,4.26,7.22,4.26,7.22,2.3,2.3,1.31,4.92,1.31,4.92-3.28,13.12-7.87,23.29-7.87,23.29-1.31-4.92-6.23-14.43-6.23-14.43-9.84-16.4-26.89-11.81-26.89-11.81,0,0,1.64-4.92,9.51-8.2h0Z" fill="#ff6600" data-primary="true"></path>
    <path d="M412.97,291.46l-.36-1.35c-1.28-4.81-6.14-14.24-6.19-14.33-9.52-15.86-26.15-11.6-26.32-11.55l-.9,.24,.29-.88c.07-.21,1.8-5.17,9.79-8.5h0c6.22-2.59,13-4.69,13.75-4.92,2.63-1.7,5.09-2.2,7.31-1.47,3.78,1.23,5.44,5.51,5.51,5.69,1.27,3.49,4.15,7.04,4.18,7.08,2.46,2.46,1.44,5.29,1.39,5.41-3.24,12.96-7.84,23.21-7.88,23.32l-.58,1.28v-.02Zm-27.62-28.78c5.98,0,15.52,1.9,21.95,12.61,.2,.38,4.21,8.15,5.89,13.23,1.31-3.1,4.73-11.66,7.3-21.95,.05-.15,.85-2.42-1.18-4.44-.16-.19-3.05-3.75-4.38-7.4-.01-.03-1.56-4.01-4.88-5.09-1.94-.63-4.13-.16-6.51,1.4l-.13,.06c-.07,.02-7.22,2.19-13.73,4.9-5.6,2.33-7.97,5.54-8.82,7.05,.96-.17,2.53-.37,4.49-.37h0Z" fill="#231f20"></path>
  </g>
  <g>
    <path d="M400.96,270.29c.46,2.3,1.4,4.43,1.92,5.51,.3,.62,.75,1.16,1.34,1.51,2.13,1.28,2.64-1.77,2.64-1.77-9.18-15.74-26.89-11.81-26.89-11.81,0,0-6.23,2.3-4.26,8.53,0,0,1.31,3.61,5.25,4.26,0,0-.5-1.99,.24-4.68,.17-.62,.85-.96,1.45-.71,1.92,.8,6.49,2.06,13.72,.14l4.59-.98h0Z" fill="#fff"></path>
    <path d="M405.19,278.12c-.34,0-.75-.1-1.23-.38-.64-.38-1.17-.98-1.53-1.72-.49-1.01-1.36-2.97-1.86-5.13l-4.1,.88c-7.24,1.93-11.89,.73-14.02-.16-.15-.06-.32-.06-.47,.01s-.26,.2-.31,.37c-.69,2.51-.24,4.4-.24,4.42l.18,.74-.75-.12c-4.18-.7-5.58-4.43-5.63-4.59-2.09-6.63,4.49-9.14,4.56-9.17,.25-.06,18.24-3.85,27.5,12.02l.09,.16-.03,.18c-.03,.19-.33,1.83-1.46,2.35-.18,.08-.42,.15-.7,.15h0Zm-3.84-8.43l.1,.5c.45,2.24,1.37,4.34,1.88,5.38,.28,.57,.67,1.02,1.14,1.3,.6,.36,.9,.23,.99,.18,.48-.22,.76-1.01,.86-1.43-8.91-15.04-26.08-11.44-26.26-11.41-.17,.07-5.69,2.2-3.9,7.89,.04,.11,1.11,2.91,4.16,3.77-.09-.86-.13-2.36,.37-4.16,.12-.44,.42-.8,.83-1,.41-.2,.88-.21,1.29-.04,2.01,.84,6.42,1.98,13.4,.11l5.11-1.1h.03Z" fill="#231f20"></path>
  </g>
  <g>
    <ellipse cx="410.14" cy="278.82" rx="3.94" ry="5.25" fill="#fff"></ellipse>
    <path d="M410.14,284.57c-2.45,0-4.44-2.58-4.44-5.75s1.99-5.75,4.44-5.75,4.44,2.58,4.44,5.75-1.99,5.75-4.44,5.75Zm0-10.5c-1.89,0-3.44,2.13-3.44,4.75s1.54,4.75,3.44,4.75,3.44-2.13,3.44-4.75-1.54-4.75-3.44-4.75Z" fill="#231f20"></path>
  </g>
  <g>
    <path d="M426.87,355.24s20.99,9.84,28.21,12.13c0,0-5.9,36.08-26.24,29.85,0,0-14.43-2.95-31.48-23.94l-18.69-24.6s-9.51,0-11.48-4.59c0,0-2.95-.98-3.28-3.28,0,0-4.26-2.62-2.3-6.23l-5.49-4.94c-.6-.54-.66-1.45-.15-2.07h0c.42-.51,1.12-.68,1.73-.42,2.88,1.21,11.06,4.39,13.75,2.51l-.97-2.51s3.92-1.43,9.17,2.83c0,0,24.93,22.3,41.65,34.44,0,0,1.39,1.16,2.81,1.92,.44,.23,.98,.03,1.17-.43,.57-1.41,1.59-4.77,1.59-10.68h0Z" fill="#fff"></path>
    <path d="M433.41,398.44c-1.53,0-3.1-.25-4.72-.74-.55-.11-14.75-3.22-31.73-24.1l-18.56-24.42c-1.55-.03-9.53-.42-11.6-4.69-.7-.28-2.92-1.31-3.36-3.37-1.55-1.04-3.77-3.51-2.46-6.42l-5.21-4.69c-.8-.72-.89-1.93-.2-2.76,.57-.68,1.49-.91,2.31-.56,4.85,2.04,10.65,3.77,12.93,2.75l-1-2.58,.48-.17c.17-.06,4.25-1.48,9.65,2.92,.27,.24,25.12,22.44,41.63,34.42,.04,.03,1.4,1.16,2.76,1.88,.11,.06,.22,.04,.27,.02,.05-.02,.15-.07,.2-.19,.58-1.44,1.56-4.71,1.56-10.49v-.79l.71,.33c.21,.1,21.04,9.85,28.14,12.11l.41,.13-.07,.43c-.15,.89-3.71,21.95-14.82,28.85-2.29,1.42-4.74,2.13-7.33,2.13h0Zm-76.3-70.91c-.29,0-.57,.13-.76,.36-.34,.41-.3,1.02,.1,1.38l5.78,5.2-.19,.35c-1.71,3.14,1.96,5.47,2.12,5.57l.2,.12,.03,.23c.28,1.97,2.92,2.87,2.94,2.88l.21,.07,.09,.21c1.82,4.24,10.93,4.29,11.02,4.29h.25l18.84,24.79c16.71,20.57,31.05,23.73,31.19,23.75,4.12,1.26,7.9,.83,11.28-1.27,9.89-6.14,13.72-24.71,14.29-27.75-6.72-2.24-23.49-9.99-27.14-11.69-.08,5.47-1.04,8.64-1.62,10.08-.14,.35-.43,.63-.78,.76-.36,.13-.75,.1-1.08-.08-1.45-.77-2.84-1.93-2.9-1.98-16.53-11.99-41.42-34.23-41.67-34.45-3.92-3.18-6.99-3.07-8.16-2.86l.9,2.34-.32,.22c-2.74,1.92-10.09-.72-14.23-2.46-.13-.05-.26-.08-.39-.08v.02Z" fill="#231f20"></path>
  </g>
  <path d="M367.26,336.43c-3.03,0-5.76-1.35-5.88-1.41-.25-.12-.35-.42-.22-.67s.43-.35,.67-.22c.03,.02,3.19,1.57,6.29,1.26,.28-.03,.52,.17,.55,.45,.03,.27-.17,.52-.45,.55-.32,.03-.63,.05-.95,.05h0Z" fill="#231f20"></path>
  <path d="M366.03,341.75c-1.64,0-2.33-.46-2.43-.54-.22-.17-.27-.48-.1-.7,.16-.22,.47-.27,.69-.11,.04,.03,1.31,.8,4.83-.08,.27-.07,.54,.1,.61,.36,.07,.27-.1,.54-.36,.61-1.35,.34-2.41,.45-3.24,.45h0Z" fill="#231f20"></path>
  <path d="M368.92,344.8c-1.16,0-1.85-.22-1.9-.24-.26-.09-.4-.37-.32-.63,.09-.26,.37-.4,.63-.32,.03,.01,1.88,.58,4.6-.33,.26-.09,.54,.05,.63,.32s-.05,.55-.32,.63c-1.32,.44-2.46,.57-3.33,.57h0Z" fill="#231f20"></path>
  <path d="M431.46,371.48c-.08,0-.15-.02-.22-.05-3.93-1.97-7.4-4.67-7.44-4.69-.22-.17-.26-.48-.09-.7s.48-.26,.7-.09c.03,.03,3.43,2.66,7.27,4.59,.25,.12,.35,.42,.22,.67-.09,.18-.26,.28-.45,.28h.01Z" fill="#231f20"></path>
  <path d="M343.73,338.79c-.17,0-.33-.08-.43-.24-.14-.23-.07-.54,.16-.69l5.21-3.21c.23-.15,.54-.07,.69,.16,.14,.23,.07,.54-.16,.69l-5.21,3.21c-.08,.05-.17,.07-.26,.07h0Z" fill="#231f20"></path>
  <path d="M434.82,307.7c-.27,0-.49-.22-.5-.49l-2.42-107.19c0-.28,.21-.5,.49-.51,.32,0,.5,.21,.51,.49l2.42,107.19c0,.28-.21,.5-.49,.51h-.01Z" fill="#231f20"></path>
  <path d="M379.64,330.48c-.25,0-.47-.19-.5-.45l-16.97-163.31c-.03-.27,.17-.52,.45-.55,.28-.02,.52,.17,.55,.45l16.97,163.31c.03,.27-.17,.52-.45,.55h-.05Z" fill="#231f20"></path>
  <path d="M338.32,336.71c-.22,0-.42-.14-.48-.37l-36.89-132.41c-.07-.27,.08-.54,.35-.62,.27-.07,.54,.08,.62,.35l36.89,132.41c.07,.27-.08,.54-.35,.62-.04,.01-.09,.02-.13,.02h0Z" fill="#231f20"></path>
  <path d="M353,326.81c-.26,0-.48-.2-.5-.46l-11.26-136.3c-.02-.27,.18-.52,.46-.54,.27-.02,.52,.18,.54,.46l11.26,136.3c.02,.27-.18,.52-.46,.54h-.04Z" fill="#231f20"></path>
  <path d="M389.48,256.03c-.25,0-.47-.19-.5-.44l-11.76-102.23c-.03-.27,.17-.52,.44-.55,.28-.04,.52,.17,.55,.44l11.76,102.23c.03,.27-.17,.52-.44,.55h-.05Z" fill="#231f20"></path>
  <g>
    <path d="M381.56,282.09c-.1,0-.21-.03-.3-.1-.22-.17-.26-.48-.1-.7,.04-.05,1.01-1.32,3.21-2.26,.25-.11,.55,0,.66,.26,.11,.25,0,.55-.26,.66-1.94,.83-2.8,1.94-2.8,1.95-.1,.13-.25,.2-.4,.2h-.01Z" fill="#231f20"></path>
    <path d="M397.5,278.49c-.09,0-.18-.02-.26-.08-2.25-1.41-5.12-1.43-5.15-1.43-.28,0-.5-.22-.5-.5s.22-.5,.5-.5c.13,0,3.18,.02,5.68,1.58,.23,.15,.31,.45,.16,.69-.09,.15-.26,.23-.42,.23h0Z" fill="#231f20"></path>
    <g>
      <ellipse cx="395.86" cy="282.02" rx="1.05" ry="1.35" transform="translate(-59.95 113.26) rotate(-15.15)" fill="#231f20"></ellipse>
      <path d="M395.98,283.88c-.31,0-.63-.11-.91-.32-.35-.26-.61-.66-.73-1.11-.12-.46-.1-.93,.07-1.33,.18-.44,.53-.75,.94-.87,.83-.23,1.72,.4,1.98,1.38,.12,.46,.1,.93-.07,1.33-.18,.44-.53,.75-.95,.87-.11,.03-.23,.05-.35,.05h.02Zm-.28-2.67s-.06,0-.08,.01c-.16,.04-.25,.2-.28,.29-.08,.19-.09,.44-.03,.68s.2,.45,.37,.57c.08,.06,.23,.15,.39,.1,.16-.04,.25-.2,.28-.29,.08-.19,.09-.44,.03-.68-.12-.43-.43-.69-.67-.69h-.01Z" fill="#231f20"></path>
    </g>
    <g>
      <ellipse cx="384.13" cy="284.42" rx="1.05" ry="1.35" transform="translate(-60.98 110.28) rotate(-15.15)" fill="#231f20"></ellipse>
      <path d="M384.26,286.29c-.72,0-1.41-.58-1.64-1.43-.12-.46-.1-.93,.07-1.33,.18-.44,.53-.75,.94-.87,.83-.22,1.72,.4,1.98,1.38h0c.12,.46,.1,.93-.07,1.33-.18,.44-.53,.75-.94,.87-.11,.03-.23,.05-.34,.05Zm-.28-2.67s-.06,0-.08,.01c-.16,.04-.25,.2-.28,.29-.08,.19-.09,.44-.03,.68,.13,.48,.5,.74,.76,.68,.16-.04,.25-.2,.28-.29,.08-.19,.09-.44,.03-.68h0c-.12-.43-.43-.69-.67-.69h-.01Z" fill="#231f20"></path>
    </g>
    <path d="M389.38,290.21c-.09,0-.18-.03-.26-.07-.13-.08-.22-.22-.23-.37l-.6-5.71c-.03-.27,.17-.52,.44-.55s.52,.17,.55,.44l.53,5.07,1.8-.68c.26-.1,.55,.03,.64,.29,.1,.26-.03,.55-.29,.64l-2.41,.9c-.06,.02-.12,.03-.18,.03h.01Z" fill="#231f20"></path>
    <path d="M392.11,295.37c-.41,0-.67-.04-.71-.05-.27-.04-.46-.3-.41-.57,.04-.27,.3-.46,.57-.42,.13,.02,3.23,.46,5.22-2.49,.15-.23,.46-.29,.69-.13,.23,.15,.29,.47,.13,.69-1.77,2.62-4.28,2.97-5.5,2.97h0Z" fill="#231f20"></path>
  </g>
  
                
    </svg>