<svg xmlns="http://www.w3.org/2000/svg" xmlns:xlink="http://www.w3.org/1999/xlink" width="1920" zoomAndPan="magnify" viewBox="0 0 1440 809.999993" height="1080" preserveAspectRatio="xMidYMid meet" version="1.0"><defs><filter x="0%" y="0%" width="100%" height="100%" id="24197243a8"><feColorMatrix values="0 0 0 0 1 0 0 0 0 1 0 0 0 0 1 0 0 0 1 0" color-interpolation-filters="sRGB"/></filter><mask id="3f024e6eac"><g filter="url(#24197243a8)"><rect x="-144" width="1728" fill="#000000" y="-80.999999" height="971.999992" fill-opacity="0.737"/></g></mask><clipPath id="8367e85b1f"><rect x="0" width="340" y="0" height="318"/></clipPath><mask id="cd05e08773"><g filter="url(#24197243a8)"><rect x="-144" width="1728" fill="#000000" y="-80.999999" height="971.999992" fill-opacity="0.802"/></g></mask><clipPath id="609124f11f"><rect x="0" width="97" y="0" height="132"/></clipPath><mask id="a9774a3828"><g filter="url(#24197243a8)"><rect x="-144" width="1728" fill="#000000" y="-80.999999" height="971.999992" fill-opacity="0.817"/></g></mask><clipPath id="20d7bda1a7"><rect x="0" width="166" y="0" height="132"/></clipPath><mask id="065e2890db"><g filter="url(#24197243a8)"><rect x="-144" width="1728" fill="#000000" y="-80.999999" height="971.999992" fill-opacity="0.844"/></g></mask><clipPath id="9d273f2bc7"><rect x="0" width="101" y="0" height="128"/></clipPath><mask id="f579ba8edd"><g filter="url(#24197243a8)"><rect x="-144" width="1728" fill="#000000" y="-80.999999" height="971.999992" fill-opacity="0.723"/></g></mask><clipPath id="0f75936f0e"><rect x="0" width="28" y="0" height="28"/></clipPath><mask id="1a13314a8b"><g filter="url(#24197243a8)"><rect x="-144" width="1728" fill="#000000" y="-80.999999" height="971.999992" fill-opacity="0.82"/></g></mask><clipPath id="eebff8948f"><rect x="0" width="101" y="0" height="106"/></clipPath><mask id="c7c81ef1de"><g filter="url(#24197243a8)"><rect x="-144" width="1728" fill="#000000" y="-80.999999" height="971.999992" fill-opacity="0.799"/></g></mask><clipPath id="91a5db59eb"><path d="M 0.160156 2 L 90 2 L 90 102 L 0.160156 102 Z M 0.160156 2 " clip-rule="nonzero"/></clipPath><clipPath id="89886f55b3"><rect x="0" width="92" y="0" height="106"/></clipPath><mask id="a3b4a4778b"><g filter="url(#24197243a8)"><rect x="-144" width="1728" fill="#000000" y="-80.999999" height="971.999992" fill-opacity="0.785"/></g></mask><clipPath id="ae06fee8e0"><rect x="0" width="96" y="0" height="106"/></clipPath><mask id="478010facb"><g filter="url(#24197243a8)"><rect x="-144" width="1728" fill="#000000" y="-80.999999" height="971.999992" fill-opacity="0.838"/></g></mask><clipPath id="53d95b6a82"><rect x="0" width="101" y="0" height="106"/></clipPath><mask id="691dadc6d7"><g filter="url(#24197243a8)"><rect x="-144" width="1728" fill="#000000" y="-80.999999" height="971.999992" fill-opacity="0.822"/></g></mask><clipPath id="d5630b4eff"><rect x="0" width="106" y="0" height="132"/></clipPath><mask id="6aa3fb8816"><g filter="url(#24197243a8)"><rect x="-144" width="1728" fill="#000000" y="-80.999999" height="971.999992" fill-opacity="0.793"/></g></mask><clipPath id="4f94d74ba4"><rect x="0" width="101" y="0" height="106"/></clipPath><mask id="9fa72fedeb"><g filter="url(#24197243a8)"><rect x="-144" width="1728" fill="#000000" y="-80.999999" height="971.999992" fill-opacity="0.816"/></g></mask><clipPath id="082e89b0a7"><rect x="0" width="110" y="0" height="136"/></clipPath><mask id="a1465995f2"><g filter="url(#24197243a8)"><rect x="-144" width="1728" fill="#000000" y="-80.999999" height="971.999992" fill-opacity="0.802"/></g></mask><clipPath id="2950f89f5e"><rect x="0" width="28" y="0" height="101"/></clipPath></defs><g mask="url(#3f024e6eac)"><g transform="matrix(1, 0, 0, 1, 47, 220)"><g clip-path="url(#8367e85b1f)"><path fill="#cc2026" d="M 285.503906 154.914062 C 281.863281 153.429688 280.414062 150.535156 281.160156 146.226562 C 283.582031 127.578125 287.925781 109.476562 294.195312 91.917969 C 253.894531 76.234375 219.863281 84.199219 192.097656 115.8125 C 192.777344 125.9375 194.953125 136.078125 198.613281 146.226562 C 198.613281 150.570312 198.613281 154.914062 198.613281 159.257812 C 191.558594 152.085938 185.765625 143.398438 181.234375 133.191406 C 169.210938 148.140625 154.730469 159.726562 137.789062 167.949219 C 144.066406 174.738281 151.308594 180.53125 159.511719 185.328125 C 156.617188 186.773438 153.71875 188.222656 150.824219 189.671875 C 140.515625 187.050781 131.105469 182.707031 122.582031 176.636719 C 107.679688 184.289062 93.921875 193.703125 81.308594 204.878906 C 79.746094 225.261719 76.851562 246.257812 72.621094 267.875 C 95.175781 265.953125 116.898438 268.125 137.789062 274.390625 C 111.875 278.574219 85.804688 280.746094 59.585938 280.90625 C 61.183594 254.625 64.082031 228.558594 68.277344 202.703125 C 66.828125 201.257812 65.378906 199.808594 63.929688 198.359375 C 50.378906 221.839844 37.34375 245.734375 24.832031 270.046875 C 40.179688 282.804688 54.660156 296.566406 68.277344 311.320312 C 64.519531 316.023438 60.171875 316.746094 55.242188 313.492188 C 38.5625 300.417969 22.632812 286.660156 7.453125 272.21875 C 12.691406 261.011719 18.484375 250.152344 24.832031 239.632812 C 10.867188 237.851562 7.972656 231.335938 16.140625 220.082031 C 10.703125 205.9375 6.359375 191.453125 3.109375 176.636719 C 10.027344 160.089844 13.648438 142.710938 13.96875 124.503906 C 34.433594 115.992188 55.429688 108.75 76.964844 102.78125 C 88.753906 104.691406 98.167969 110.484375 105.203125 120.15625 C 107.375 98.753906 119.683594 89.339844 142.132812 91.917969 C 134.328125 84.992188 129.980469 76.304688 129.101562 65.851562 C 137.996094 45.160156 148.132812 24.886719 159.511719 5.027344 C 178.425781 7.566406 197.253906 6.84375 215.992188 2.855469 C 228.777344 7.347656 240.363281 13.863281 250.75 22.40625 C 257.847656 24.550781 265.089844 25.273438 272.472656 24.578125 C 271.519531 29.683594 272.96875 34.027344 276.816406 37.609375 C 288.839844 30.027344 301.148438 28.578125 313.746094 33.265625 C 320.988281 47.75 328.226562 62.230469 335.46875 76.710938 C 338.859375 82.984375 338.136719 88.777344 333.296875 94.089844 C 323.472656 75.855469 312.609375 58.476562 300.710938 41.957031 C 273.984375 52.308594 247.195312 61.722656 220.335938 70.195312 C 247.78125 73.519531 275.296875 75.691406 302.882812 76.710938 C 301.082031 104.140625 295.289062 130.207031 285.503906 154.914062 Z M 163.855469 15.886719 C 175.53125 15.175781 187.117188 15.898438 198.613281 18.0625 C 186.304688 30.371094 173.992188 42.679688 161.683594 54.988281 C 155.71875 65.085938 154.269531 75.222656 157.339844 85.402344 C 151.417969 79.351562 147.796875 72.109375 146.476562 63.679688 C 152.296875 47.671875 158.085938 31.738281 163.855469 15.886719 Z M 211.648438 24.578125 C 229.363281 28.359375 246.738281 33.425781 263.78125 39.785156 C 243.527344 43.742188 224.703125 50.984375 207.300781 61.507812 C 197.890625 73.816406 188.476562 86.125 179.0625 98.433594 C 174.738281 87.027344 173.292969 75.441406 174.71875 63.679688 C 187.917969 51.210938 200.226562 38.179688 211.648438 24.578125 Z M 90 133.191406 C 81.191406 132.488281 72.503906 133.210938 63.929688 135.363281 C 50.550781 145.3125 36.792969 154.726562 22.65625 163.605469 C 21.898438 152.058594 22.621094 140.472656 24.832031 128.847656 C 40.183594 127.003906 55.390625 124.105469 70.449219 120.15625 C 79.933594 120.253906 86.449219 124.597656 90 133.191406 Z M 29.175781 228.773438 C 27.898438 213.132812 25.003906 197.925781 20.484375 183.15625 C 37.828125 168.683594 56.652344 156.375 76.964844 146.226562 C 86.367188 150.199219 95.054688 155.265625 103.03125 161.429688 C 88.550781 168.671875 74.070312 175.914062 59.585938 183.15625 C 47.730469 197.523438 37.59375 212.730469 29.175781 228.773438 Z M 29.175781 228.773438 " fill-opacity="1" fill-rule="evenodd"/></g></g></g><g mask="url(#cd05e08773)"><g transform="matrix(1, 0, 0, 1, 625, 359)"><g clip-path="url(#609124f11f)"><path fill="#cc2126" d="M 33.347656 2.882812 C 66.8125 -3.015625 87.085938 10.015625 94.171875 41.980469 C 78.394531 38.238281 63.191406 32.445312 48.554688 24.605469 C 29.976562 24.503906 23.460938 32.46875 29.003906 48.5 C 49.976562 53.53125 69.527344 61.496094 87.65625 72.394531 C 100.484375 97.628906 93.96875 115.730469 68.105469 126.703125 C 46.820312 131.589844 27.269531 127.964844 9.453125 115.839844 C 4.550781 107.824219 2.378906 99.132812 2.933594 89.773438 C 18.761719 93.878906 33.96875 99.671875 48.554688 107.152344 C 69.410156 106.832031 74.480469 98.867188 63.757812 83.253906 C 49.277344 78.910156 34.792969 74.566406 20.3125 70.222656 C -5.746094 41.929688 -1.402344 19.480469 33.347656 2.882812 Z M 33.347656 2.882812 " fill-opacity="1" fill-rule="evenodd"/></g></g></g><g mask="url(#a9774a3828)"><g transform="matrix(1, 0, 0, 1, 243, 363)"><g clip-path="url(#20d7bda1a7)"><path fill="#ffffff" d="M 2.613281 3.226562 C 10.382812 1.988281 17.621094 3.433594 24.335938 7.570312 C 32.1875 28.242188 40.878906 48.519531 50.402344 68.394531 C 64.835938 48.378906 69.179688 26.65625 63.4375 3.226562 C 70.679688 3.226562 77.917969 3.226562 85.160156 3.226562 C 84.414062 7.535156 85.863281 10.429688 89.503906 11.914062 C 96.164062 32.601562 104.128906 52.875 113.398438 72.738281 C 122.703125 49.902344 130.664062 26.730469 137.296875 3.226562 C 146.4375 1.925781 155.125 3.375 163.363281 7.570312 C 147.910156 48.613281 131.257812 89.164062 113.398438 129.21875 C 100.949219 107.195312 90.8125 84.027344 82.988281 59.703125 C 70.988281 82.257812 60.128906 105.425781 50.402344 129.21875 C 34.480469 91.585938 18.546875 53.933594 2.613281 16.257812 C 2.613281 11.914062 2.613281 7.570312 2.613281 3.226562 Z M 2.613281 3.226562 " fill-opacity="1" fill-rule="evenodd"/></g></g></g><g mask="url(#065e2890db)"><g transform="matrix(1, 0, 0, 1, 512, 363)"><g clip-path="url(#9d273f2bc7)"><path fill="#ffffff" d="M 2.976562 3.226562 C 10.21875 3.226562 17.457031 3.226562 24.699219 3.226562 C 23.992188 13.464844 24.710938 23.601562 26.871094 33.636719 C 81.441406 20.109375 104.609375 41.832031 96.386719 98.804688 C 90.949219 111.324219 81.539062 119.285156 68.144531 122.703125 C 46.070312 122.246094 24.347656 122.96875 2.976562 124.875 C 2.976562 84.324219 2.976562 43.773438 2.976562 3.226562 Z M 46.421875 46.671875 C 79.035156 56.300781 84.828125 74.40625 63.800781 100.976562 C 34.113281 106.046875 21.800781 93.738281 26.871094 64.050781 C 32.941406 57.226562 39.457031 51.433594 46.421875 46.671875 Z M 46.421875 46.671875 " fill-opacity="1" fill-rule="evenodd"/></g></g></g><g mask="url(#f579ba8edd)"><g transform="matrix(1, 0, 0, 1, 1159, 363)"><g clip-path="url(#0f75936f0e)"><path fill="#cc2126" d="M 3.316406 3.226562 C 10.558594 3.226562 17.796875 3.226562 25.039062 3.226562 C 25.039062 10.464844 25.039062 17.707031 25.039062 24.949219 C 17.796875 24.949219 10.558594 24.949219 3.316406 24.949219 C 3.316406 17.707031 3.316406 10.464844 3.316406 3.226562 Z M 3.316406 3.226562 " fill-opacity="1" fill-rule="evenodd"/></g></g></g><g mask="url(#1a13314a8b)"><g transform="matrix(1, 0, 0, 1, 404, 385)"><g clip-path="url(#eebff8948f)"><path fill="#ffffff" d="M 45.808594 2.949219 C 70.5625 3.722656 87.941406 15.308594 97.941406 37.703125 C 77.667969 50.738281 57.394531 63.773438 37.117188 76.804688 C 53.371094 83.265625 67.851562 80.371094 80.566406 68.117188 C 87.089844 70.648438 92.882812 74.269531 97.941406 78.976562 C 81.40625 101.128906 59.683594 108.363281 32.773438 100.703125 C 0.449219 80.617188 -6.066406 53.824219 13.222656 20.328125 C 23.019531 11.644531 33.882812 5.851562 45.808594 2.949219 Z M 50.152344 24.671875 C 55.652344 27.234375 61.445312 29.40625 67.53125 31.1875 C 54.128906 39.703125 40.367188 47.667969 26.257812 55.082031 C 26.695312 39.398438 34.664062 29.261719 50.152344 24.671875 Z M 50.152344 24.671875 " fill-opacity="1" fill-rule="evenodd"/></g></g></g><g mask="url(#c7c81ef1de)"><g transform="matrix(1, 0, 0, 1, 734, 385)"><g clip-path="url(#89886f55b3)"><g clip-path="url(#91a5db59eb)"><path fill="#cc2126" d="M 41.652344 2.949219 C 62.964844 2.089844 78.890625 10.777344 89.441406 29.015625 C 85.761719 34.859375 80.695312 39.203125 74.234375 42.050781 C 55.058594 19.121094 37.679688 20.570312 22.101562 46.394531 C 19.339844 73.683594 31.652344 84.542969 59.027344 78.976562 C 68.371094 67.230469 77.78125 66.503906 87.269531 76.804688 C 86.140625 88.175781 79.621094 96.140625 67.71875 100.703125 C 12.554688 106.378906 -8.441406 82.484375 4.722656 29.015625 C 14.425781 15.542969 26.734375 6.855469 41.652344 2.949219 Z M 41.652344 2.949219 " fill-opacity="1" fill-rule="evenodd"/></g></g></g></g><g mask="url(#a3b4a4778b)"><g transform="matrix(1, 0, 0, 1, 834, 385)"><g clip-path="url(#ae06fee8e0)"><path fill="#cc2126" d="M 45.921875 2.949219 C 67.335938 3.503906 83.261719 12.917969 93.710938 31.1875 C 87.339844 33.949219 81.546875 37.570312 76.332031 42.050781 C 62 22.734375 46.792969 21.285156 30.714844 37.703125 C 24.957031 59 22.785156 80.722656 24.199219 102.875 C 16.957031 102.875 9.71875 102.875 2.476562 102.875 C 2.476562 71.011719 2.476562 39.152344 2.476562 7.292969 C 11.019531 6.253906 18.988281 7.699219 26.371094 11.636719 C 33.417969 9.035156 39.933594 6.140625 45.921875 2.949219 Z M 45.921875 2.949219 " fill-opacity="1" fill-rule="evenodd"/></g></g></g><g mask="url(#478010facb)"><g transform="matrix(1, 0, 0, 1, 929, 385)"><g clip-path="url(#53d95b6a82)"><path fill="#cc2126" d="M 46.5 2.949219 C 63.867188 10.605469 81.246094 12.054688 98.636719 7.292969 C 98.636719 39.152344 98.636719 71.011719 98.636719 102.875 C 77.265625 100.96875 55.542969 100.246094 33.46875 100.703125 C 20.074219 97.285156 10.664062 89.324219 5.226562 76.804688 C -5.507812 37.375 8.25 12.757812 46.5 2.949219 Z M 46.5 24.671875 C 79.117188 34.300781 84.90625 52.40625 63.878906 78.976562 C 34.191406 84.046875 21.878906 71.738281 26.949219 42.050781 C 32.382812 34.691406 38.898438 28.898438 46.5 24.671875 Z M 46.5 24.671875 " fill-opacity="1" fill-rule="evenodd"/></g></g></g><g mask="url(#691dadc6d7)"><g transform="matrix(1, 0, 0, 1, 1042, 385)"><g clip-path="url(#d5630b4eff)"><path fill="#cc2126" d="M 46.460938 2.949219 C 93.96875 9.195312 110.621094 35.265625 96.421875 81.152344 C 76.757812 104.246094 53.589844 108.589844 26.910156 94.183594 C 24.75 105.679688 24.023438 117.265625 24.738281 128.941406 C 17.496094 128.941406 10.257812 128.941406 3.015625 128.941406 C 3.015625 88.394531 3.015625 47.84375 3.015625 7.292969 C 12.097656 6.503906 20.789062 7.953125 29.082031 11.636719 C 35.710938 9.488281 41.503906 6.59375 46.460938 2.949219 Z M 50.804688 24.671875 C 79 32.53125 86.242188 49.183594 72.527344 74.632812 C 35.078125 87.503906 21.320312 75.191406 31.253906 37.703125 C 37.375 32.140625 43.890625 27.792969 50.804688 24.671875 Z M 50.804688 24.671875 " fill-opacity="1" fill-rule="evenodd"/></g></g></g><g mask="url(#6aa3fb8816)"><g transform="matrix(1, 0, 0, 1, 1199, 385)"><g clip-path="url(#4f94d74ba4)"><path fill="#cc2126" d="M 45.863281 2.949219 C 72.933594 3.046875 89.589844 16.082031 95.828125 42.050781 C 97.996094 62.273438 98.71875 82.546875 98 102.875 C 90.757812 102.875 83.519531 102.875 76.277344 102.875 C 78.449219 78.855469 75.550781 55.683594 67.585938 33.359375 C 49.476562 21.707031 35.71875 26.050781 26.3125 46.394531 C 24.144531 65.164062 23.421875 83.992188 24.140625 102.875 C 16.898438 102.875 9.660156 102.875 2.417969 102.875 C 2.417969 71.011719 2.417969 39.152344 2.417969 7.292969 C 10.964844 6.253906 18.933594 7.699219 26.3125 11.636719 C 33.359375 9.035156 39.878906 6.140625 45.863281 2.949219 Z M 45.863281 2.949219 " fill-opacity="1" fill-rule="evenodd"/></g></g></g><g mask="url(#9fa72fedeb)"><g transform="matrix(1, 0, 0, 1, 1307, 385)"><g clip-path="url(#082e89b0a7)"><path fill="#cc2126" d="M 46.480469 2.949219 C 58.699219 3.15625 70.28125 6.054688 81.234375 11.636719 C 89.527344 7.953125 98.21875 6.503906 107.300781 7.292969 C 108.023438 37.738281 107.300781 68.152344 105.128906 98.527344 C 89.25 129.976562 63.910156 140.835938 29.101562 131.113281 C 5.324219 122.414062 3.148438 111.554688 22.582031 98.527344 C 40.835938 117.882812 58.9375 118.605469 76.890625 100.703125 C 35.792969 109.855469 11.171875 93.921875 3.03125 52.910156 C 7.800781 27.183594 22.28125 10.53125 46.480469 2.949219 Z M 46.480469 24.671875 C 81.6875 27.140625 91.824219 43.796875 76.890625 74.632812 C 52.074219 87.644531 34.695312 81.128906 24.757812 55.082031 C 27.210938 41.113281 34.453125 30.976562 46.480469 24.671875 Z M 46.480469 24.671875 " fill-opacity="1" fill-rule="evenodd"/></g></g></g><g mask="url(#a1465995f2)"><g transform="matrix(1, 0, 0, 1, 1159, 390)"><g clip-path="url(#2950f89f5e)"><path fill="#cc2126" d="M 3.316406 2.292969 C 10.558594 2.292969 17.796875 2.292969 25.039062 2.292969 C 25.039062 34.152344 25.039062 66.011719 25.039062 97.875 C 17.796875 97.875 10.558594 97.875 3.316406 97.875 C 3.316406 66.011719 3.316406 34.152344 3.316406 2.292969 Z M 3.316406 2.292969 " fill-opacity="1" fill-rule="evenodd"/></g></g></g></svg>